<svg xmlns="http://www.w3.org/2000/svg" width="58" height="58" fill="none" viewBox="0 0 58 58"><g clip-path="url(#clip0_289_1108)"><path fill="#DCF7E7" stroke="#000" stroke-width="2" d="M10.342 46.3142C13.2723 41.7697 18.5704 35.9275 27.014 29.393C17.0988 25.4329 10.3982 21.2732 6.331 17.7099C4.19139 15.8354 2.73952 14.0902 1.94926 12.5876C1.19808 11.1593 0.881333 9.60232 1.73692 8.46765C2.5925 7.33299 4.17662 7.20926 5.75643 7.53864C7.4184 7.88515 9.49562 8.80102 11.8863 10.3425C16.4308 13.2728 22.273 18.5709 28.8075 27.0145C32.7676 17.0993 36.9273 10.3987 40.4906 6.33149C42.3651 4.19189 44.1103 2.74002 45.6129 1.94976C47.0411 1.19857 48.5982 0.881823 49.7329 1.73741C50.8675 2.59299 50.9913 4.17712 50.6619 5.75692C50.3154 7.41889 49.3995 9.49612 47.858 11.8868C44.9277 16.4313 39.6296 22.2735 31.186 28.808C41.1012 32.7681 47.8018 36.9278 51.869 40.4911C54.0086 42.3656 55.4605 44.1108 56.2508 45.6134C57.002 47.0416 57.3187 48.5987 56.4631 49.7334C55.6075 50.868 54.0234 50.9918 52.4436 50.6624C50.7816 50.3159 48.7044 49.4 46.3137 47.8585C41.7692 44.9282 35.927 39.6301 29.3925 31.1865C25.4324 41.1017 21.2727 47.8023 17.7094 51.8695C15.8349 54.0091 14.0897 55.461 12.5871 56.2513C11.1589 57.0024 9.60182 57.3192 8.46716 56.4636C7.33249 55.608 7.20877 54.0239 7.53814 52.4441C7.88465 50.7821 8.80052 48.7049 10.342 46.3142Z"/></g><defs><clipPath id="clip0_289_1108"><rect width="58" height="58" fill="#fff"/></clipPath></defs></svg>