<svg width="1426" height="349" viewBox="0 0 1426 349" fill="none" xmlns="http://www.w3.org/2000/svg">
<mask id="mask0_125_518" style="mask-type:luminance" maskUnits="userSpaceOnUse" x="0" y="0" width="1456" height="363">
<path d="M1456 0H0V363H1456V0Z" fill="white"/>
</mask>
<g mask="url(#mask0_125_518)">
<g opacity="0.25">
<path fill-rule="evenodd" clip-rule="evenodd" d="M60.6347 2.00006L0 2V3.06442L0.000151678 91.411L0 92.4754L0.000149 180.823L4.13229e-05 181.888L0.000146324 270.233L4.13229e-05 271.298L0.000143646 359.645L4.13229e-05 360.709L0.000140969 449.057L0 450.121L0.000138292 538.468L0 539.532H363.809H727.62V538.468H727.661V539.532H1091.47H1455.28V538.468H1456V2.00013H1455.28L1395.37 2.00006H1394.64H1334.73H1334.01H1274.1H1273.37L1212.74 2.00013H1152.1L1092.19 2.00006H1091.47H1030.84H970.196H909.563H848.929H788.295L727.661 2L727.62 2.00013L667.704 2.00006H666.983H607.07H606.348H546.435H545.713L485.079 2.00013H424.444L364.53 2.00006H363.809H303.174H242.539H181.904H121.27H60.6347ZM1395.37 538.468V450.121H1455.28V538.468H1395.37ZM1394.64 538.468V450.121H1334.73V538.468H1394.64ZM1334.01 538.468V450.121H1274.1V538.468H1334.01ZM1273.37 538.468V450.121H1213.46V538.468H1273.37ZM1212.74 538.468V450.121H1152.82V538.468H1212.74ZM1152.1 538.468V450.121H1092.19V538.468H1152.1ZM1091.47 538.468V450.121H1031.56V538.468H1091.47ZM727.62 538.468H667.704V450.121H727.62V538.468ZM1152.1 449.057H1092.19V360.709H1152.1V449.057ZM1212.74 449.057H1152.82V360.709H1212.74V449.057ZM1273.37 449.057H1213.46V360.709H1273.37V449.057ZM1334.01 449.057H1274.1V360.709H1334.01V449.057ZM1394.64 449.057H1334.73V360.709H1394.64V449.057ZM1455.28 449.057H1395.37V360.709H1455.28V449.057ZM1031.56 449.057H1091.47V360.709H1031.56V449.057ZM1455.28 359.645V271.299H1395.37V359.645H1455.28ZM1394.64 359.645V271.299H1334.73V359.645H1394.64ZM1334.01 359.645V271.299H1274.1V359.645H1334.01ZM1273.37 359.645V271.299H1213.46V359.645H1273.37ZM1212.74 359.645V271.299H1152.82V359.645H1212.74ZM1152.1 359.645V271.299H1092.19V359.645H1152.1ZM1091.47 359.645V271.298H1031.56V359.645H1091.47ZM1152.1 270.234H1092.19V181.888H1152.1V270.234ZM1212.74 270.234H1152.82V181.888H1212.74V270.234ZM1273.37 270.234H1213.46V181.888H1273.37V270.234ZM1334.01 270.234H1274.1V181.888H1334.01V270.234ZM1394.64 270.234H1334.73V181.888H1394.64V270.234ZM1455.28 270.234H1395.37V181.888H1455.28V270.234ZM1455.28 180.823V92.4755H1395.37V180.823H1455.28ZM1394.64 180.823V92.4755H1334.73V180.823H1394.64ZM1334.01 180.823V92.4755H1274.1V180.823H1334.01ZM1273.37 180.823V92.4755H1213.46V180.823H1273.37ZM1212.74 180.823V92.4755H1152.82V180.823H1212.74ZM1152.1 180.823V92.4755H1092.19V180.823H1152.1ZM1091.47 180.823V92.4755H1031.56V180.823H1091.47ZM1091.47 181.888H1031.56V270.233H1091.47V181.888ZM1152.1 91.411H1092.19V3.06448L1152.1 3.06449V91.411ZM1212.74 91.4111L1152.82 91.411V3.06449L1212.74 3.0645V91.4111ZM1273.37 91.4111H1213.46V3.0645L1273.37 3.06451V91.4111ZM1334.01 91.4111H1274.1V3.06451L1334.01 3.06453V91.4111ZM1394.64 91.4111H1334.73V3.06453L1394.64 3.06454V91.4111ZM1455.28 91.4111H1395.37V3.06454L1455.28 3.06455V91.4111ZM1031.56 91.411H1091.47V3.06448L1031.56 3.06447V91.411ZM666.983 538.468V450.121H607.07V538.468H666.983ZM606.348 538.468V450.121H546.435V538.468H606.348ZM545.713 538.468V450.121H485.8V538.468H545.713ZM485.079 538.468V450.121H425.166V538.468H485.079ZM424.444 538.468V450.121H364.53V538.468H424.444ZM363.809 538.468V450.121H303.896V538.468H363.809ZM424.444 449.057H364.53V360.709H424.444V449.057ZM485.079 449.057H425.166V360.709H485.079V449.057ZM545.713 449.057H485.8V360.709H545.713V449.057ZM606.348 449.057H546.435V360.709H606.348V449.057ZM666.983 449.057H607.07V360.709H666.983V449.057ZM727.62 449.057H667.704V360.709H727.62V449.057ZM303.896 449.057H363.809V360.709H303.896V449.057ZM727.62 359.645V271.299H667.704V359.645H727.62ZM666.983 359.645V271.299H607.07V359.645H666.983ZM606.348 359.645V271.299H546.435V359.645H606.348ZM545.713 359.645V271.299H485.8V359.645H545.713ZM485.079 359.645V271.299H425.166V359.645H485.079ZM424.444 359.645V271.299H364.53V359.645H424.444ZM363.809 359.645V271.299V271.298H303.896V359.645H363.809ZM424.444 270.234H364.53V181.888H424.444V270.234ZM485.079 270.234H425.166V181.888H485.079V270.234ZM545.713 270.234H485.8V181.888H545.713V270.234ZM606.348 270.234H546.435V181.888H606.348V270.234ZM666.983 270.234H607.07V181.888H666.983V270.234ZM727.62 270.234H667.704V181.888H727.62V270.234ZM727.62 180.823V92.4755H667.704V180.823H727.62ZM666.983 180.823V92.4755H607.07V180.823H666.983ZM606.348 180.823V92.4755H546.435V180.823H606.348ZM545.713 180.823V92.4755H485.8V180.823H545.713ZM485.079 180.823V92.4755H425.166V180.823H485.079ZM424.444 180.823V92.4755H364.53V180.823H424.444ZM363.809 180.823V92.4755H303.896V180.823H363.809ZM363.809 181.888H303.896V270.233H363.809V181.888ZM424.444 91.411H364.53V3.06448L424.444 3.06449V91.411ZM485.079 91.4111L425.166 91.411V3.06449L485.079 3.0645V91.4111ZM545.713 91.4111H485.8V3.0645L545.713 3.06451V91.4111ZM606.348 91.4111H546.435V3.06451L606.348 3.06453V91.4111ZM666.983 91.4111H607.07V3.06453L666.983 3.06454V91.4111ZM727.62 91.4111H667.704V3.06454L727.62 3.06455V91.4111ZM303.896 91.411H363.809V3.06448L303.896 3.06447V91.411ZM303.174 538.468V450.121H243.261V538.468H303.174ZM242.539 538.468V450.121H182.626V538.468H242.539ZM181.904 538.468V450.121H121.992V538.468H181.904ZM121.27 538.468V450.121H61.3565V538.468H121.27ZM60.6346 538.468V450.121H0.721985L0.721978 538.468H60.6346ZM60.6347 449.057H0.721985V360.709H60.6347V449.057ZM121.27 449.057H61.3565V360.709H121.27V449.057ZM181.904 449.057H121.992V360.709H181.904V449.057ZM242.539 449.057H182.626V360.709H242.539V449.057ZM303.174 449.057H243.261V360.709H303.174V449.057ZM303.174 359.645V271.298H243.261V359.645H303.174ZM242.539 359.645V271.298H182.626V359.645H242.539ZM181.904 359.645V271.298H121.992V359.645H181.904ZM121.27 359.645V271.298H61.3565V359.645H121.27ZM60.6347 359.645V271.298H0.721992L0.721985 359.645H60.6347ZM60.6347 270.233H0.721992V181.888H60.6347V270.233ZM121.27 270.233H61.3565V181.888H121.27V270.233ZM181.904 270.233H121.992V181.888H181.904V270.233ZM242.539 270.233H182.626V181.888H242.539V270.233ZM303.174 270.233H243.261V181.888H303.174V270.233ZM303.174 180.823V92.4755L243.261 92.4754V180.823H303.174ZM242.539 180.823V92.4754H182.626V180.823H242.539ZM181.904 180.823V92.4754H121.992V180.823H181.904ZM121.27 180.823V92.4754H61.3565V180.823H121.27ZM60.6347 180.823V92.4754H0.721992V180.823H60.6347ZM60.6347 91.411H0.721992L0.721998 3.06442L60.6347 3.06443V91.411ZM121.27 91.411H61.3565V3.06443L121.27 3.06444V91.411ZM181.904 91.411H121.992V3.06444L181.904 3.06445V91.411ZM242.539 91.411H182.626V3.06445L242.539 3.06446V91.411ZM303.174 91.411H243.261V3.06446L303.174 3.06447V91.411ZM728.38 538.468H788.295V450.121H728.38V538.468ZM789.02 538.468H848.929V450.121H789.02V538.468ZM849.654 538.468H909.563V450.121H849.654V538.468ZM910.288 538.468H970.196V450.121H910.288V538.468ZM970.922 538.468H1030.84V450.121H970.922V538.468ZM1030.84 360.709V449.057H970.922V360.709H1030.84ZM970.196 360.709V449.057H910.288V360.709H970.196ZM909.563 360.709V449.057H849.654V360.709H909.563ZM848.929 360.709V449.057H789.02V360.709H848.929ZM788.295 360.709V449.057H728.38V360.709H788.295ZM728.38 359.645H788.295V271.298H728.38V359.645ZM789.02 359.645H848.929V271.298H789.02V359.645ZM849.654 359.645H909.563V271.298H849.654V359.645ZM910.288 359.645H970.196V271.298H910.288V359.645ZM970.922 359.645H1030.84V271.298H970.922V359.645ZM1030.84 181.888V270.233H970.922V181.888H1030.84ZM970.196 181.888V270.233H910.288V181.888H970.196ZM909.563 181.888V270.233H849.654V181.888H909.563ZM848.929 181.888V270.233H789.02V181.888H848.929ZM788.295 181.888V270.233H728.38V181.888H788.295ZM728.38 180.823H788.295V92.4754H728.38V180.823ZM789.02 180.823H848.929V92.4754H789.02V180.823ZM849.654 180.823H909.563V92.4754H849.654V180.823ZM910.288 180.823H970.196V92.4754H910.288V180.823ZM970.922 180.823H1030.84V92.4755L970.922 92.4754V180.823ZM788.295 91.411H728.38V3.06442L788.295 3.06443V91.411ZM848.929 91.411H789.02V3.06443L848.929 3.06444V91.411ZM909.563 91.411H849.654V3.06444L909.563 3.06445V91.411ZM970.196 91.411H910.288V3.06445L970.196 3.06446V91.411ZM1030.84 91.411H970.922V3.06446L1030.84 3.06447V91.411Z" fill="white"/>
<mask id="mask1_125_518" style="mask-type:luminance" maskUnits="userSpaceOnUse" x="-1" y="1" width="1459" height="542">
<path d="M1457.36 1H-0.677734V543H1457.36V1Z" fill="white"/>
<path fill-rule="evenodd" clip-rule="evenodd" d="M60.6347 2.00006L0 2V3.06442L0.000151678 91.411L0 92.4754L0.000149 180.823L4.13229e-05 181.888L0.000146324 270.233L4.13229e-05 271.298L0.000143646 359.645L4.13229e-05 360.709L0.000140969 449.057L0 450.121L0.000138292 538.468L0 539.532H363.809H727.62V538.468H727.661V539.532H1091.47H1455.28V538.468H1456V2.00013H1455.28L1395.37 2.00006H1394.64H1334.73H1334.01H1274.1H1273.37L1212.74 2.00013H1152.1L1092.19 2.00006H1091.47H1030.84H970.196H909.563H848.929H788.295L727.661 2L727.62 2.00013L667.704 2.00006H666.983H607.07H606.348H546.435H545.713L485.079 2.00013H424.444L364.53 2.00006H363.809H303.174H242.539H181.904H121.27H60.6347ZM1395.37 538.468V450.121H1455.28V538.468H1395.37ZM1394.64 538.468V450.121H1334.73V538.468H1394.64ZM1334.01 538.468V450.121H1274.1V538.468H1334.01ZM1273.37 538.468V450.121H1213.46V538.468H1273.37ZM1212.74 538.468V450.121H1152.82V538.468H1212.74ZM1152.1 538.468V450.121H1092.19V538.468H1152.1ZM1091.47 538.468V450.121H1031.56V538.468H1091.47ZM727.62 538.468H667.704V450.121H727.62V538.468ZM1152.1 449.057H1092.19V360.709H1152.1V449.057ZM1212.74 449.057H1152.82V360.709H1212.74V449.057ZM1273.37 449.057H1213.46V360.709H1273.37V449.057ZM1334.01 449.057H1274.1V360.709H1334.01V449.057ZM1394.64 449.057H1334.73V360.709H1394.64V449.057ZM1455.28 449.057H1395.37V360.709H1455.28V449.057ZM1031.56 449.057H1091.47V360.709H1031.56V449.057ZM1455.28 359.645V271.299H1395.37V359.645H1455.28ZM1394.64 359.645V271.299H1334.73V359.645H1394.64ZM1334.01 359.645V271.299H1274.1V359.645H1334.01ZM1273.37 359.645V271.299H1213.46V359.645H1273.37ZM1212.74 359.645V271.299H1152.82V359.645H1212.74ZM1152.1 359.645V271.299H1092.19V359.645H1152.1ZM1091.47 359.645V271.298H1031.56V359.645H1091.47ZM1152.1 270.234H1092.19V181.888H1152.1V270.234ZM1212.74 270.234H1152.82V181.888H1212.74V270.234ZM1273.37 270.234H1213.46V181.888H1273.37V270.234ZM1334.01 270.234H1274.1V181.888H1334.01V270.234ZM1394.64 270.234H1334.73V181.888H1394.64V270.234ZM1455.28 270.234H1395.37V181.888H1455.28V270.234ZM1455.28 180.823V92.4755H1395.37V180.823H1455.28ZM1394.64 180.823V92.4755H1334.73V180.823H1394.64ZM1334.01 180.823V92.4755H1274.1V180.823H1334.01ZM1273.37 180.823V92.4755H1213.46V180.823H1273.37ZM1212.74 180.823V92.4755H1152.82V180.823H1212.74ZM1152.1 180.823V92.4755H1092.19V180.823H1152.1ZM1091.47 180.823V92.4755H1031.56V180.823H1091.47ZM1091.47 181.888H1031.56V270.233H1091.47V181.888ZM1152.1 91.411H1092.19V3.06448L1152.1 3.06449V91.411ZM1212.74 91.4111L1152.82 91.411V3.06449L1212.74 3.0645V91.4111ZM1273.37 91.4111H1213.46V3.0645L1273.37 3.06451V91.4111ZM1334.01 91.4111H1274.1V3.06451L1334.01 3.06453V91.4111ZM1394.64 91.4111H1334.73V3.06453L1394.64 3.06454V91.4111ZM1455.28 91.4111H1395.37V3.06454L1455.28 3.06455V91.4111ZM1031.56 91.411H1091.47V3.06448L1031.56 3.06447V91.411ZM666.983 538.468V450.121H607.07V538.468H666.983ZM606.348 538.468V450.121H546.435V538.468H606.348ZM545.713 538.468V450.121H485.8V538.468H545.713ZM485.079 538.468V450.121H425.166V538.468H485.079ZM424.444 538.468V450.121H364.53V538.468H424.444ZM363.809 538.468V450.121H303.896V538.468H363.809ZM424.444 449.057H364.53V360.709H424.444V449.057ZM485.079 449.057H425.166V360.709H485.079V449.057ZM545.713 449.057H485.8V360.709H545.713V449.057ZM606.348 449.057H546.435V360.709H606.348V449.057ZM666.983 449.057H607.07V360.709H666.983V449.057ZM727.62 449.057H667.704V360.709H727.62V449.057ZM303.896 449.057H363.809V360.709H303.896V449.057ZM727.62 359.645V271.299H667.704V359.645H727.62ZM666.983 359.645V271.299H607.07V359.645H666.983ZM606.348 359.645V271.299H546.435V359.645H606.348ZM545.713 359.645V271.299H485.8V359.645H545.713ZM485.079 359.645V271.299H425.166V359.645H485.079ZM424.444 359.645V271.299H364.53V359.645H424.444ZM363.809 359.645V271.299V271.298H303.896V359.645H363.809ZM424.444 270.234H364.53V181.888H424.444V270.234ZM485.079 270.234H425.166V181.888H485.079V270.234ZM545.713 270.234H485.8V181.888H545.713V270.234ZM606.348 270.234H546.435V181.888H606.348V270.234ZM666.983 270.234H607.07V181.888H666.983V270.234ZM727.62 270.234H667.704V181.888H727.62V270.234ZM727.62 180.823V92.4755H667.704V180.823H727.62ZM666.983 180.823V92.4755H607.07V180.823H666.983ZM606.348 180.823V92.4755H546.435V180.823H606.348ZM545.713 180.823V92.4755H485.8V180.823H545.713ZM485.079 180.823V92.4755H425.166V180.823H485.079ZM424.444 180.823V92.4755H364.53V180.823H424.444ZM363.809 180.823V92.4755H303.896V180.823H363.809ZM363.809 181.888H303.896V270.233H363.809V181.888ZM424.444 91.411H364.53V3.06448L424.444 3.06449V91.411ZM485.079 91.4111L425.166 91.411V3.06449L485.079 3.0645V91.4111ZM545.713 91.4111H485.8V3.0645L545.713 3.06451V91.4111ZM606.348 91.4111H546.435V3.06451L606.348 3.06453V91.4111ZM666.983 91.4111H607.07V3.06453L666.983 3.06454V91.4111ZM727.62 91.4111H667.704V3.06454L727.62 3.06455V91.4111ZM303.896 91.411H363.809V3.06448L303.896 3.06447V91.411ZM303.174 538.468V450.121H243.261V538.468H303.174ZM242.539 538.468V450.121H182.626V538.468H242.539ZM181.904 538.468V450.121H121.992V538.468H181.904ZM121.27 538.468V450.121H61.3565V538.468H121.27ZM60.6346 538.468V450.121H0.721985L0.721978 538.468H60.6346ZM60.6347 449.057H0.721985V360.709H60.6347V449.057ZM121.27 449.057H61.3565V360.709H121.27V449.057ZM181.904 449.057H121.992V360.709H181.904V449.057ZM242.539 449.057H182.626V360.709H242.539V449.057ZM303.174 449.057H243.261V360.709H303.174V449.057ZM303.174 359.645V271.298H243.261V359.645H303.174ZM242.539 359.645V271.298H182.626V359.645H242.539ZM181.904 359.645V271.298H121.992V359.645H181.904ZM121.27 359.645V271.298H61.3565V359.645H121.27ZM60.6347 359.645V271.298H0.721992L0.721985 359.645H60.6347ZM60.6347 270.233H0.721992V181.888H60.6347V270.233ZM121.27 270.233H61.3565V181.888H121.27V270.233ZM181.904 270.233H121.992V181.888H181.904V270.233ZM242.539 270.233H182.626V181.888H242.539V270.233ZM303.174 270.233H243.261V181.888H303.174V270.233ZM303.174 180.823V92.4755L243.261 92.4754V180.823H303.174ZM242.539 180.823V92.4754H182.626V180.823H242.539ZM181.904 180.823V92.4754H121.992V180.823H181.904ZM121.27 180.823V92.4754H61.3565V180.823H121.27ZM60.6347 180.823V92.4754H0.721992V180.823H60.6347ZM60.6347 91.411H0.721992L0.721998 3.06442L60.6347 3.06443V91.411ZM121.27 91.411H61.3565V3.06443L121.27 3.06444V91.411ZM181.904 91.411H121.992V3.06444L181.904 3.06445V91.411ZM242.539 91.411H182.626V3.06445L242.539 3.06446V91.411ZM303.174 91.411H243.261V3.06446L303.174 3.06447V91.411ZM728.38 538.468H788.295V450.121H728.38V538.468ZM789.02 538.468H848.929V450.121H789.02V538.468ZM849.654 538.468H909.563V450.121H849.654V538.468ZM910.288 538.468H970.196V450.121H910.288V538.468ZM970.922 538.468H1030.84V450.121H970.922V538.468ZM1030.84 360.709V449.057H970.922V360.709H1030.84ZM970.196 360.709V449.057H910.288V360.709H970.196ZM909.563 360.709V449.057H849.654V360.709H909.563ZM848.929 360.709V449.057H789.02V360.709H848.929ZM788.295 360.709V449.057H728.38V360.709H788.295ZM728.38 359.645H788.295V271.298H728.38V359.645ZM789.02 359.645H848.929V271.298H789.02V359.645ZM849.654 359.645H909.563V271.298H849.654V359.645ZM910.288 359.645H970.196V271.298H910.288V359.645ZM970.922 359.645H1030.84V271.298H970.922V359.645ZM1030.84 181.888V270.233H970.922V181.888H1030.84ZM970.196 181.888V270.233H910.288V181.888H970.196ZM909.563 181.888V270.233H849.654V181.888H909.563ZM848.929 181.888V270.233H789.02V181.888H848.929ZM788.295 181.888V270.233H728.38V181.888H788.295ZM728.38 180.823H788.295V92.4754H728.38V180.823ZM789.02 180.823H848.929V92.4754H789.02V180.823ZM849.654 180.823H909.563V92.4754H849.654V180.823ZM910.288 180.823H970.196V92.4754H910.288V180.823ZM970.922 180.823H1030.84V92.4755L970.922 92.4754V180.823ZM788.295 91.411H728.38V3.06442L788.295 3.06443V91.411ZM848.929 91.411H789.02V3.06443L848.929 3.06444V91.411ZM909.563 91.411H849.654V3.06444L909.563 3.06445V91.411ZM970.196 91.411H910.288V3.06445L970.196 3.06446V91.411ZM1030.84 91.411H970.922V3.06446L1030.84 3.06447V91.411Z" fill="white"/>
</mask>
<g mask="url(#mask1_125_518)">
<path d="M0.000421226 2L0.000421711 1L-0.677734 1V2H0.000421226ZM0.000421226 3.06442H-0.677734V4.06442H0.000421226V3.06442ZM0.000421226 3.06442H0.678733V2.06442H0.000575554L0.000421226 3.06442ZM0.000572886 91.411V92.411H0.678726V91.411H0.000572886ZM0.000572886 91.411L0.000421226 90.411H-0.677734V91.411H0.000572886ZM0.000421226 92.4754H-0.677734V93.4754H0.000421226V92.4754ZM0.000421226 92.4754H0.678726V91.4754H0.000572886L0.000421226 92.4754ZM0.000570219 180.823V181.823H0.678726V180.823H0.000570219ZM0.000570219 180.823L0.000462617 179.823H-0.677693V180.823H0.000570219ZM0.000462537 181.888H-0.677693V182.888H0.000462537V181.888ZM0.000462537 181.888H0.678726V180.888H0.000570219L0.000462537 181.888ZM0.000567551 270.233V271.233H0.678726V270.233H0.000567551ZM0.000567551 270.233L0.000462617 269.233H-0.677693V270.233H0.000567551ZM0.000462537 271.298H-0.677693V272.298H0.000462537V271.298ZM0.000462537 271.298H0.678726V270.298H0.000567551L0.000462537 271.298ZM0.000564883 359.645V360.645H0.678719V359.645H0.000564883ZM0.000564883 359.645L0.000462617 358.645H-0.677693V359.645H0.000564883ZM0.000462537 360.709H-0.677693V361.709H0.000462537V360.709ZM0.000462537 360.709H0.678719V359.709H0.000564802L0.000462537 360.709ZM0.000562215 449.057V450.057H0.678719V449.057H0.000562215ZM0.000562215 449.057L0.000421226 448.057H-0.677734V449.057H0.000562215ZM0.000421226 450.121H-0.677734V451.121H0.000421226V450.121ZM0.000421226 450.121H0.678719V449.121H0.000562134L0.000421226 450.121ZM0.000559547 538.468L-0.591929 538.955L0.678712 542.319V538.468H0.000559547ZM0.000559547 538.468L0.59291 537.981L-0.677734 534.616V538.468H0.000559547ZM0.000421226 539.532H-0.677734V540.532H0.000421145L0.000421226 539.532ZM727.621 539.532V540.532H728.299V539.532H727.621ZM727.661 538.468H728.34V537.469L727.661 537.468V538.468ZM727.661 539.532H726.983V540.532H727.661V539.532ZM1455.28 539.532V540.532H1455.96V539.532H1455.28ZM1456 538.468V539.468H1456.68V538.468H1456ZM1456 2.00013H1456.68V1.00013H1456V2.00013ZM727.661 2V1L726.983 1V2H727.661ZM727.661 2V3.00013H728.34V2.00013L727.661 2ZM1395.37 450.121V449.121H1394.69V450.121H1395.37ZM1395.37 538.468H1394.69V539.468H1395.37V538.468ZM1455.28 450.121H1455.96V449.121H1455.28V450.121ZM1394.64 538.468V539.468H1395.32V538.468H1394.64ZM1394.64 450.121H1395.32V449.121H1394.64V450.121ZM1334.73 450.121V449.121H1334.05V450.121H1334.73ZM1334.73 538.468H1334.05V539.468H1334.73V538.468ZM1334.01 538.468V539.468H1334.69V538.468H1334.01ZM1334.01 450.121H1334.69V449.121H1334.01V450.121ZM1274.1 450.121V449.121H1273.42V450.121H1274.1ZM1274.1 538.468H1273.42V539.468H1274.1V538.468ZM1273.37 538.468V539.468H1274.05V538.468H1273.37ZM1273.37 450.121H1274.05V449.121H1273.37V450.121ZM1213.46 450.121V449.121H1212.79V450.121H1213.46ZM1213.46 538.468H1212.79V539.468H1213.46V538.468ZM1212.74 538.468V539.468H1213.42V538.468H1212.74ZM1212.74 450.121H1213.42V449.121H1212.74V450.121ZM1152.82 450.121V449.121H1152.15V450.121H1152.82ZM1152.82 538.468H1152.15V539.468H1152.82V538.468ZM1152.11 538.468V539.468H1152.78V538.468H1152.11ZM1152.11 450.121H1152.78V449.121H1152.11V450.121ZM1092.19 450.121V449.121H1091.51V450.121H1092.19ZM1092.19 538.468H1091.51V539.468H1092.19V538.468ZM1091.47 538.468V539.468H1092.15V538.468H1091.47ZM1091.47 450.121H1092.15V449.121H1091.47V450.121ZM1031.56 450.121V449.121H1030.88V450.121H1031.56ZM1031.56 538.468H1030.88V539.468H1031.56V538.468ZM667.705 538.468H667.027V539.468H667.705V538.468ZM667.705 450.121V449.121H667.027V450.121H667.705ZM727.621 450.121H728.299V449.121H727.621V450.121ZM1092.19 449.057H1091.51V450.057H1092.19V449.057ZM1152.11 449.057V450.057H1152.78V449.057H1152.11ZM1092.19 360.709V359.709H1091.51V360.709H1092.19ZM1152.11 360.709H1152.78V359.709H1152.11V360.709ZM1152.82 449.057H1152.15V450.057H1152.82V449.057ZM1212.74 449.057V450.057H1213.42V449.057H1212.74ZM1152.82 360.709V359.709H1152.15V360.709H1152.82ZM1212.74 360.709H1213.42V359.709H1212.74V360.709ZM1213.46 449.057H1212.79V450.057H1213.46V449.057ZM1273.37 449.057V450.057H1274.05V449.057H1273.37ZM1213.46 360.709V359.709H1212.79V360.709H1213.46ZM1273.37 360.709H1274.05V359.709H1273.37V360.709ZM1274.1 449.057H1273.42V450.057H1274.1V449.057ZM1334.01 449.057V450.057H1334.69V449.057H1334.01ZM1274.1 360.709V359.709H1273.42V360.709H1274.1ZM1334.01 360.709H1334.69V359.709H1334.01V360.709ZM1334.73 449.057H1334.05V450.057H1334.73V449.057ZM1394.64 449.057V450.057H1395.32V449.057H1394.64ZM1334.73 360.709V359.709H1334.05V360.709H1334.73ZM1394.64 360.709H1395.32V359.709H1394.64V360.709ZM1395.37 449.057H1394.69V450.057H1395.37V449.057ZM1455.28 449.057V450.057H1455.96V449.057H1455.28ZM1395.37 360.709V359.709H1394.69V360.709H1395.37ZM1455.28 360.709H1455.96V359.709H1455.28V360.709ZM1091.47 449.057V450.057H1092.15V449.057H1091.47ZM1031.56 449.057H1030.88V450.057H1031.56V449.057ZM1091.47 360.709H1092.15V359.709H1091.47V360.709ZM1031.56 360.709V359.709H1030.88V360.709H1031.56ZM1455.28 271.299H1455.96V270.299H1455.28V271.299ZM1455.28 359.645V360.645H1455.96V359.645H1455.28ZM1395.37 271.299V270.299H1394.69V271.299H1395.37ZM1395.37 359.645H1394.69V360.645H1395.37V359.645ZM1394.64 271.299H1395.32V270.299H1394.64V271.299ZM1394.64 359.645V360.645H1395.32V359.645H1394.64ZM1334.73 271.299V270.299H1334.05V271.299H1334.73ZM1334.73 359.645H1334.05V360.645H1334.73V359.645ZM1334.01 271.299H1334.69V270.299H1334.01V271.299ZM1334.01 359.645V360.645H1334.69V359.645H1334.01ZM1274.1 271.299V270.299H1273.42V271.299H1274.1ZM1274.1 359.645H1273.42V360.645H1274.1V359.645ZM1273.37 271.299H1274.05V270.299H1273.37V271.299ZM1273.37 359.645V360.645H1274.05V359.645H1273.37ZM1213.46 271.299V270.299H1212.79V271.299H1213.46ZM1213.46 359.645H1212.79V360.645H1213.46V359.645ZM1212.74 271.299H1213.42V270.299H1212.74V271.299ZM1212.74 359.645V360.645H1213.42V359.645H1212.74ZM1152.82 271.299V270.299H1152.15V271.299H1152.82ZM1152.82 359.645H1152.15V360.645H1152.82V359.645ZM1152.11 271.299H1152.78V270.299H1152.11V271.299ZM1152.11 359.645V360.645H1152.78V359.645H1152.11ZM1092.19 271.299V270.299H1091.51V271.299H1092.19ZM1092.19 359.645H1091.51V360.645H1092.19V359.645ZM1091.47 271.298H1092.15V270.298H1091.47V271.298ZM1091.47 359.645V360.645H1092.15V359.645H1091.47ZM1031.56 271.298V270.298H1030.88V271.298H1031.56ZM1031.56 359.645H1030.88V360.645H1031.56V359.645ZM1092.19 270.234H1091.51V271.234H1092.19V270.234ZM1152.11 270.234V271.234H1152.78V270.234H1152.11ZM1092.19 181.888V180.888H1091.51V181.888H1092.19ZM1152.11 181.888H1152.78V180.888H1152.11V181.888ZM1152.82 270.234H1152.15V271.234H1152.82V270.234ZM1212.74 270.234V271.234H1213.42V270.234H1212.74ZM1152.82 181.888V180.888H1152.15V181.888H1152.82ZM1212.74 181.888H1213.42V180.888H1212.74V181.888ZM1213.46 270.234H1212.79V271.234H1213.46V270.234ZM1273.37 270.234V271.234H1274.05V270.234H1273.37ZM1213.46 181.888V180.888H1212.79V181.888H1213.46ZM1273.37 181.888H1274.05V180.888H1273.37V181.888ZM1274.1 270.234H1273.42V271.234H1274.1V270.234ZM1334.01 270.234V271.234H1334.69V270.234H1334.01ZM1274.1 181.888V180.888H1273.42V181.888H1274.1ZM1334.01 181.888H1334.69V180.888H1334.01V181.888ZM1334.73 270.234H1334.05V271.234H1334.73V270.234ZM1394.64 270.234V271.234H1395.32V270.234H1394.64ZM1334.73 181.888V180.888H1334.05V181.888H1334.73ZM1394.64 181.888H1395.32V180.888H1394.64V181.888ZM1395.37 270.234H1394.69V271.234H1395.37V270.234ZM1455.28 270.234V271.234H1455.96V270.234H1455.28ZM1395.37 181.888V180.888H1394.69V181.888H1395.37ZM1455.28 181.888H1455.96V180.888H1455.28V181.888ZM1455.28 92.4755H1455.96V91.4755H1455.28V92.4755ZM1455.28 180.823V181.823H1455.96V180.823H1455.28ZM1395.37 92.4755V91.4755H1394.69V92.4755H1395.37ZM1395.37 180.823H1394.69V181.823H1395.37V180.823ZM1394.64 92.4755H1395.32V91.4755H1394.64V92.4755ZM1394.64 180.823V181.823H1395.32V180.823H1394.64ZM1334.73 92.4755V91.4755H1334.05V92.4755H1334.73ZM1334.73 180.823H1334.05V181.823H1334.73V180.823ZM1334.01 92.4755H1334.69V91.4755H1334.01V92.4755ZM1334.01 180.823V181.823H1334.69V180.823H1334.01ZM1274.1 92.4755V91.4755H1273.42V92.4755H1274.1ZM1274.1 180.823H1273.42V181.823H1274.1V180.823ZM1273.37 92.4755H1274.05V91.4755H1273.37V92.4755ZM1273.37 180.823V181.823H1274.05V180.823H1273.37ZM1213.46 92.4755V91.4755H1212.79V92.4755H1213.46ZM1213.46 180.823H1212.79V181.823H1213.46V180.823ZM1212.74 92.4755H1213.42V91.4755H1212.74V92.4755ZM1212.74 180.823V181.823H1213.42V180.823H1212.74ZM1152.82 92.4755V91.4755H1152.15V92.4755H1152.82ZM1152.82 180.823H1152.15V181.823H1152.82V180.823ZM1152.11 92.4755H1152.78V91.4755H1152.11V92.4755ZM1152.11 180.823V181.823H1152.78V180.823H1152.11ZM1092.19 92.4755V91.4755H1091.51V92.4755H1092.19ZM1092.19 180.823H1091.51V181.823H1092.19V180.823ZM1091.47 92.4755H1092.15V91.4755H1091.47V92.4755ZM1091.47 180.823V181.823H1092.15V180.823H1091.47ZM1031.56 92.4755V91.4755H1030.88V92.4755H1031.56ZM1031.56 180.823H1030.88V181.823H1031.56V180.823ZM1031.56 181.888V180.888H1030.88V181.888H1031.56ZM1091.47 181.888H1092.15V180.888H1091.47V181.888ZM1031.56 270.233H1030.88V271.233H1031.56V270.233ZM1091.47 270.233V271.233H1092.15V270.233H1091.47ZM1092.19 91.411H1091.51V92.411H1092.19V91.411ZM1152.11 91.411V92.411H1152.78V91.411H1152.11ZM1092.19 3.06448V2.06448H1091.51V3.06448H1092.19ZM1152.11 3.06449H1152.78V2.06449H1152.11V3.06449ZM1152.82 91.411H1152.15V92.411H1152.82V91.411ZM1212.74 91.4111V92.4111H1213.42V91.4111H1212.74ZM1152.82 3.06449V2.06449H1152.15V3.06449H1152.82ZM1212.74 3.0645H1213.42V2.0645H1212.74V3.0645ZM1213.46 91.4111H1212.79V92.4111H1213.46V91.4111ZM1273.37 91.4111V92.4111H1274.05V91.4111H1273.37ZM1213.46 3.0645V2.0645H1212.79V3.0645H1213.46ZM1273.37 3.06451H1274.05V2.06451H1273.37V3.06451ZM1274.1 91.4111H1273.42V92.4111H1274.1V91.4111ZM1334.01 91.4111V92.4111H1334.69V91.4111H1334.01ZM1274.1 3.06451V2.06451H1273.42V3.06451H1274.1ZM1334.01 3.06453H1334.69V2.06453H1334.01V3.06453ZM1334.73 91.4111H1334.05V92.4111H1334.73V91.4111ZM1394.64 91.4111V92.4111H1395.32V91.4111H1394.64ZM1334.73 3.06453V2.06453H1334.05V3.06453H1334.73ZM1394.64 3.06454H1395.32V2.06454H1394.64V3.06454ZM1395.37 91.4111H1394.69V92.4111H1395.37V91.4111ZM1455.28 91.4111V92.4111H1455.96V91.4111H1455.28ZM1395.37 3.06454V2.06454H1394.69V3.06454H1395.37ZM1455.28 3.06455L1455.96 3.06454V2.06455H1455.28V3.06455ZM1091.47 91.411V92.411H1092.15V91.411H1091.47ZM1031.56 91.411H1030.88V92.411H1031.56V91.411ZM1091.47 3.06448H1092.15V2.06448H1091.47V3.06448ZM1031.56 3.06447V2.06447H1030.88V3.06447H1031.56ZM666.983 450.121H667.662V449.121H666.983V450.121ZM666.983 538.468V539.468H667.662V538.468H666.983ZM607.07 450.121V449.121H606.392V450.121H607.07ZM607.07 538.468H606.392V539.468H607.07V538.468ZM606.348 450.121H607.026V449.121H606.348V450.121ZM606.348 538.468V539.468H607.026V538.468H606.348ZM546.436 450.121V449.121H545.758V450.121H546.436ZM546.436 538.468H545.758V539.468H546.436V538.468ZM545.714 450.121H546.392V449.121H545.714V450.121ZM545.714 538.468V539.468H546.392V538.468H545.714ZM485.801 450.121V449.121H485.122V450.121H485.801ZM485.801 538.468H485.122V539.468H485.801V538.468ZM485.079 450.121H485.757V449.121H485.079V450.121ZM485.079 538.468V539.468H485.757V538.468H485.079ZM425.166 450.121V449.121H424.488V450.121H425.166ZM425.166 538.468H424.488V539.468H425.166V538.468ZM424.444 450.121H425.123V449.121H424.444V450.121ZM424.444 538.468V539.468H425.123V538.468H424.444ZM364.531 450.121V449.121H363.853V450.121H364.531ZM364.531 538.468H363.853V539.468H364.531V538.468ZM363.809 450.121H364.487V449.121H363.809V450.121ZM363.809 538.468V539.468H364.487V538.468H363.809ZM303.896 450.121V449.121H303.218V450.121H303.896ZM303.896 538.468H303.218V539.468H303.896V538.468ZM364.531 449.057H363.853V450.057H364.531V449.057ZM424.444 449.057V450.057H425.123V449.057H424.444ZM364.531 360.709V359.709H363.853V360.709H364.531ZM424.444 360.709H425.123V359.709H424.444V360.709ZM425.166 449.057H424.488V450.057H425.166V449.057ZM485.079 449.057V450.057H485.757V449.057H485.079ZM425.166 360.709V359.709H424.488V360.709H425.166ZM485.079 360.709H485.757V359.709H485.079V360.709ZM485.801 449.057H485.122V450.057H485.801V449.057ZM545.714 449.057V450.057H546.392V449.057H545.714ZM485.801 360.709V359.709H485.122V360.709H485.801ZM545.714 360.709H546.392V359.709H545.714V360.709ZM546.436 449.057H545.758V450.057H546.436V449.057ZM606.348 449.057V450.057H607.026V449.057H606.348ZM546.436 360.709V359.709H545.758V360.709H546.436ZM606.348 360.709H607.026V359.709H606.348V360.709ZM607.07 449.057H606.392V450.057H607.07V449.057ZM666.983 449.057V450.057H667.662V449.057H666.983ZM607.07 360.709V359.709H606.392V360.709H607.07ZM666.983 360.709H667.662V359.709H666.983V360.709ZM667.705 449.057H667.027V450.057H667.705V449.057ZM727.621 449.057V450.057H728.299V449.057H727.621ZM667.705 360.709V359.709H667.027V360.709H667.705ZM727.621 360.709H728.299V359.709H727.621V360.709ZM363.809 449.057V450.057H364.487V449.057H363.809ZM303.896 449.057H303.218V450.057H303.896V449.057ZM363.809 360.709H364.487V359.709H363.809V360.709ZM303.896 360.709V359.709H303.218V360.709H303.896ZM727.621 271.299H728.299V270.299H727.621V271.299ZM727.621 359.645V360.645H728.299V359.645H727.621ZM667.705 271.299V270.299H667.027V271.299H667.705ZM667.705 359.645H667.027V360.645H667.705V359.645ZM666.983 271.299H667.662V270.299H666.983V271.299ZM666.983 359.645V360.645H667.662V359.645H666.983ZM607.07 271.299V270.299H606.392V271.299H607.07ZM607.07 359.645H606.392V360.645H607.07V359.645ZM606.348 271.299H607.026V270.299H606.348V271.299ZM606.348 359.645V360.645H607.026V359.645H606.348ZM546.436 271.299V270.299H545.758V271.299H546.436ZM546.436 359.645H545.758V360.645H546.436V359.645ZM545.714 271.299H546.392V270.299H545.714V271.299ZM545.714 359.645V360.645H546.392V359.645H545.714ZM485.801 271.299V270.299H485.122V271.299H485.801ZM485.801 359.645H485.122V360.645H485.801V359.645ZM485.079 271.299H485.757V270.299H485.079V271.299ZM485.079 359.645V360.645H485.757V359.645H485.079ZM425.166 271.299V270.299H424.488V271.299H425.166ZM425.166 359.645H424.488V360.645H425.166V359.645ZM424.444 271.299H425.123V270.299H424.444V271.299ZM424.444 359.645V360.645H425.123V359.645H424.444ZM364.531 271.299V270.299H363.853V271.299H364.531ZM364.531 359.645H363.853V360.645H364.531V359.645ZM363.809 271.299L363.137 271.167L363.131 271.232V271.299H363.809ZM363.809 359.645V360.645H364.487V359.645H363.809ZM363.809 271.298L364.481 271.43L364.584 270.298H363.809V271.298ZM303.896 271.298V270.298H303.218V271.298H303.896ZM303.896 359.645H303.218V360.645H303.896V359.645ZM364.531 270.234H363.853V271.234H364.531V270.234ZM424.444 270.234V271.234H425.123V270.234H424.444ZM364.531 181.888V180.888H363.853V181.888H364.531ZM424.444 181.888H425.123V180.888H424.444V181.888ZM425.166 270.234H424.488V271.234H425.166V270.234ZM485.079 270.234V271.234H485.757V270.234H485.079ZM425.166 181.888V180.888H424.488V181.888H425.166ZM485.079 181.888H485.757V180.888H485.079V181.888ZM485.801 270.234H485.122V271.234H485.801V270.234ZM545.714 270.234V271.234H546.392V270.234H545.714ZM485.801 181.888V180.888H485.122V181.888H485.801ZM545.714 181.888H546.392V180.888H545.714V181.888ZM546.436 270.234H545.758V271.234H546.436V270.234ZM606.348 270.234V271.234H607.026V270.234H606.348ZM546.436 181.888V180.888H545.758V181.888H546.436ZM606.348 181.888H607.026V180.888H606.348V181.888ZM607.07 270.234H606.392V271.234H607.07V270.234ZM666.983 270.234V271.234H667.662V270.234H666.983ZM607.07 181.888V180.888H606.392V181.888H607.07ZM666.983 181.888H667.662V180.888H666.983V181.888ZM667.705 270.234H667.027V271.234H667.705V270.234ZM727.621 270.234V271.234H728.299V270.234H727.621ZM667.705 181.888V180.888H667.027V181.888H667.705ZM727.621 181.888H728.299V180.888H727.621V181.888ZM727.621 92.4755H728.299V91.4755H727.621V92.4755ZM727.621 180.823V181.823H728.299V180.823H727.621ZM667.705 92.4755V91.4755H667.027V92.4755H667.705ZM667.705 180.823H667.027V181.823H667.705V180.823ZM666.983 92.4755H667.662V91.4755H666.983V92.4755ZM666.983 180.823V181.823H667.662V180.823H666.983ZM607.07 92.4755V91.4755H606.392V92.4755H607.07ZM607.07 180.823H606.392V181.823H607.07V180.823ZM606.348 92.4755H607.026V91.4755H606.348V92.4755ZM606.348 180.823V181.823H607.026V180.823H606.348ZM546.436 92.4755V91.4755H545.758V92.4755H546.436ZM546.436 180.823H545.758V181.823H546.436V180.823ZM545.714 92.4755H546.392V91.4755H545.714V92.4755ZM545.714 180.823V181.823H546.392V180.823H545.714ZM485.801 92.4755V91.4755H485.122V92.4755H485.801ZM485.801 180.823H485.122V181.823H485.801V180.823ZM485.079 92.4755H485.757V91.4755H485.079V92.4755ZM485.079 180.823V181.823H485.757V180.823H485.079ZM425.166 92.4755V91.4755H424.488V92.4755H425.166ZM425.166 180.823H424.488V181.823H425.166V180.823ZM424.444 92.4755H425.123V91.4755H424.444V92.4755ZM424.444 180.823V181.823H425.123V180.823H424.444ZM364.531 92.4755V91.4755H363.853V92.4755H364.531ZM364.531 180.823H363.853V181.823H364.531V180.823ZM363.809 92.4755H364.487V91.4755H363.809V92.4755ZM363.809 180.823V181.823H364.487V180.823H363.809ZM303.896 92.4755V91.4755H303.218V92.4755H303.896ZM303.896 180.823H303.218V181.823H303.896V180.823ZM303.896 181.888V180.888H303.218V181.888H303.896ZM363.809 181.888H364.487V180.888H363.809V181.888ZM303.896 270.233H303.218V271.233H303.896V270.233ZM363.809 270.233V271.233H364.487V270.233H363.809ZM364.531 91.411H363.853V92.411H364.531V91.411ZM424.444 91.411V92.411H425.123V91.411H424.444ZM364.531 3.06448V2.06448H363.853V3.06448H364.531ZM424.444 3.06449H425.123V2.06449H424.444V3.06449ZM425.166 91.411H424.488V92.411H425.166V91.411ZM485.079 91.4111V92.4111H485.757V91.4111H485.079ZM425.166 3.06449V2.06449H424.488V3.06449H425.166ZM485.079 3.0645H485.757V2.0645H485.079V3.0645ZM485.801 91.4111H485.122V92.4111H485.801V91.4111ZM545.714 91.4111V92.4111H546.392V91.4111H545.714ZM485.801 3.0645V2.0645H485.122V3.0645H485.801ZM545.714 3.06451H546.392V2.06451H545.714V3.06451ZM546.436 91.4111H545.758V92.4111H546.436V91.4111ZM606.348 91.4111V92.4111H607.026V91.4111H606.348ZM546.436 3.06451V2.06451H545.758V3.06451H546.436ZM606.348 3.06453H607.026V2.06453H606.348V3.06453ZM607.07 91.4111H606.392V92.4111H607.07V91.4111ZM666.983 91.4111V92.4111H667.662V91.4111H666.983ZM607.07 3.06453V2.06453H606.392V3.06453H607.07ZM666.983 3.06454H667.662V2.06454H666.983V3.06454ZM667.705 91.4111H667.027V92.4111H667.705V91.4111ZM727.621 91.4111V92.4111H728.299V91.4111H727.621ZM667.705 3.06454V2.06454H667.027V3.06454H667.705ZM727.621 3.06455H728.299V2.06455H727.621V3.06455ZM363.809 91.411V92.411H364.487V91.411H363.809ZM303.896 91.411H303.218V92.411H303.896V91.411ZM363.809 3.06448H364.487V2.06448H363.809V3.06448ZM303.896 3.06447V2.06447H303.218V3.06447H303.896ZM303.175 450.121H303.853V449.121H303.175V450.121ZM303.175 538.468V539.468H303.853V538.468H303.175ZM243.261 450.121V449.121H242.583V450.121H243.261ZM243.261 538.468H242.583V539.468H243.261V538.468ZM242.539 450.121H243.218V449.121H242.539V450.121ZM242.539 538.468V539.468H243.218V538.468H242.539ZM182.626 450.121V449.121H181.948V450.121H182.626ZM182.626 538.468H181.948V539.468H182.626V538.468ZM181.905 450.121H182.583V449.121H181.905V450.121ZM181.905 538.468V539.468H182.583V538.468H181.905ZM121.992 450.121V449.121H121.314V450.121H121.992ZM121.992 538.468H121.314V539.468H121.992V538.468ZM121.27 450.121H121.948V449.121H121.27V450.121ZM121.27 538.468V539.468H121.948V538.468H121.27ZM61.357 450.121V449.121H60.6788V450.121H61.357ZM61.357 538.468H60.6788V539.468H61.357V538.468ZM60.6351 450.121H61.3132V449.121H60.6351V450.121ZM60.6351 538.468V539.468H61.3132V538.468H60.6351ZM0.722406 450.121V449.121H0.0442493L0.0442492 450.121H0.722406ZM0.722399 538.468H0.0442466V539.468H0.722406L0.722399 538.468ZM0.722406 449.057H0.0442492V450.057H0.722406V449.057ZM60.6351 449.057V450.057H61.3133V449.057H60.6351ZM0.722406 360.709V359.709H0.0442519V360.709H0.722406ZM60.6351 360.709H61.3133V359.709H60.6351V360.709ZM61.357 449.057H60.6788V450.057H61.357V449.057ZM121.27 449.057V450.057H121.948V449.057H121.27ZM61.357 360.709V359.709H60.6788V360.709H61.357ZM121.27 360.709H121.948V359.709H121.27V360.709ZM121.992 449.057H121.314V450.057H121.992V449.057ZM181.905 449.057V450.057H182.583V449.057H181.905ZM121.992 360.709V359.709H121.314V360.709H121.992ZM181.905 360.709H182.583V359.709H181.905V360.709ZM182.626 449.057H181.948V450.057H182.626V449.057ZM242.539 449.057V450.057H243.218V449.057H242.539ZM182.626 360.709V359.709H181.948V360.709H182.626ZM242.539 360.709H243.218V359.709H242.539V360.709ZM243.261 449.057H242.583V450.057H243.261V449.057ZM303.175 449.057V450.057H303.853V449.057H303.175ZM243.261 360.709V359.709H242.583V360.709H243.261ZM303.175 360.709H303.853V359.709H303.175V360.709ZM303.175 271.298H303.853V270.298H303.175V271.298ZM303.175 359.645V360.645H303.853V359.645H303.175ZM243.261 271.298V270.298H242.583V271.298H243.261ZM243.261 359.645H242.583V360.645H243.261V359.645ZM242.539 271.298H243.218V270.298H242.539V271.298ZM242.539 359.645V360.645H243.218V359.645H242.539ZM182.626 271.298V270.298H181.948V271.298H182.626ZM182.626 359.645H181.948V360.645H182.626V359.645ZM181.905 271.298H182.583V270.298H181.905V271.298ZM181.905 359.645V360.645H182.583V359.645H181.905ZM121.992 271.298V270.298H121.314V271.298H121.992ZM121.992 359.645H121.314V360.645H121.992V359.645ZM121.27 271.298H121.948V270.298H121.27V271.298ZM121.27 359.645V360.645H121.948V359.645H121.27ZM61.357 271.298V270.298H60.6788V271.298H61.357ZM61.357 359.645H60.6788V360.645H61.357V359.645ZM60.6351 271.298H61.3133V270.298H60.6351V271.298ZM60.6351 359.645V360.645H61.3133V359.645H60.6351ZM0.722413 271.298V270.298H0.0442546L0.0442546 271.298H0.722413ZM0.722406 359.645H0.0442519L0.0442518 360.645H0.722406V359.645ZM0.722413 270.233H0.0442546V271.233H0.722413V270.233ZM60.6351 270.233V271.233H61.3133V270.233H60.6351ZM0.722413 181.888V180.888H0.0442572V181.888H0.722413ZM60.6351 181.888H61.3133V180.888H60.6351V181.888ZM61.357 270.233H60.6788V271.233H61.357V270.233ZM121.27 270.233V271.233H121.948V270.233H121.27ZM61.357 181.888V180.888H60.6788V181.888H61.357ZM121.27 181.888H121.948V180.888H121.27V181.888ZM121.992 270.233H121.314V271.233H121.992V270.233ZM181.905 270.233V271.233H182.583V270.233H181.905ZM121.992 181.888V180.888H121.314V181.888H121.992ZM181.905 181.888H182.583V180.888H181.905V181.888ZM182.626 270.233H181.948V271.233H182.626V270.233ZM242.539 270.233V271.233H243.218V270.233H242.539ZM182.626 181.888V180.888H181.948V181.888H182.626ZM242.539 181.888H243.218V180.888H242.539V181.888ZM243.261 270.233H242.583V271.233H243.261V270.233ZM303.175 270.233V271.233H303.853V270.233H303.175ZM243.261 181.888V180.888H242.583V181.888H243.261ZM303.175 181.888H303.853V180.888H303.175V181.888ZM303.175 92.4755H303.853V91.4755H303.175V92.4755ZM303.175 180.823V181.823H303.853V180.823H303.175ZM243.261 92.4754V91.4754H242.583V92.4754H243.261ZM243.261 180.823H242.583V181.823H243.261V180.823ZM242.539 92.4754H243.218V91.4754H242.539V92.4754ZM242.539 180.823V181.823H243.218V180.823H242.539ZM182.626 92.4754V91.4754H181.948V92.4754H182.626ZM182.626 180.823H181.948V181.823H182.626V180.823ZM181.905 92.4754H182.583V91.4754H181.905V92.4754ZM181.905 180.823V181.823H182.583V180.823H181.905ZM121.992 92.4754V91.4754H121.314V92.4754H121.992ZM121.992 180.823H121.314V181.823H121.992V180.823ZM121.27 92.4754H121.948V91.4754H121.27V92.4754ZM121.27 180.823V181.823H121.948V180.823H121.27ZM61.357 92.4754V91.4754H60.6788V92.4754H61.357ZM61.357 180.823H60.6788V181.823H61.357V180.823ZM60.6351 92.4754H61.3133V91.4754H60.6351V92.4754ZM60.6351 180.823V181.823H61.3133V180.823H60.6351ZM0.722413 92.4754V91.4754H0.0442599V92.4754H0.722413ZM0.722413 180.823H0.0442572V181.823H0.722413V180.823ZM0.722413 91.411H0.0442599L0.0442598 92.411H0.722413V91.411ZM60.6351 91.411V92.411H61.3133V91.411H60.6351ZM0.72242 3.06442V2.06442H0.0442627L0.0442626 3.06442H0.72242ZM60.6351 3.06443H61.3133V2.06443H60.6351V3.06443ZM61.357 91.411H60.6788V92.411H61.357V91.411ZM121.27 91.411V92.411H121.948V91.411H121.27ZM61.357 3.06443V2.06443H60.6788V3.06443H61.357ZM121.27 3.06444H121.948V2.06444H121.27V3.06444ZM121.992 91.411H121.314V92.411H121.992V91.411ZM181.905 91.411V92.411H182.583V91.411H181.905ZM121.992 3.06444V2.06444H121.314V3.06444H121.992ZM181.905 3.06445H182.583V2.06445H181.905V3.06445ZM182.626 91.411H181.948V92.411H182.626V91.411ZM242.539 91.411V92.411H243.218V91.411H242.539ZM182.626 3.06445V2.06445H181.948V3.06445H182.626ZM242.539 3.06446H243.218V2.06446H242.539V3.06446ZM243.261 91.411H242.583V92.411H243.261V91.411ZM303.175 91.411V92.411H303.853V91.411H303.175ZM243.261 3.06446V2.06446H242.583V3.06446H243.261ZM303.175 3.06447H303.853V2.06447H303.175V3.06447ZM788.295 538.468V539.468H788.973V538.468H788.295ZM728.38 538.468H727.702V539.468H728.38V538.468ZM788.295 450.121H788.973V449.121H788.295V450.121ZM728.38 450.121V449.121H727.702V450.121H728.38ZM848.929 538.468V539.468H849.607V538.468H848.929ZM789.021 538.468H788.343V539.468H789.021V538.468ZM848.929 450.121H849.607V449.121H848.929V450.121ZM789.021 450.121V449.121H788.343V450.121H789.021ZM909.563 538.468V539.468H910.241V538.468H909.563ZM849.655 538.468H848.977V539.468H849.655V538.468ZM909.563 450.121H910.241V449.121H909.563V450.121ZM849.655 450.121V449.121H848.977V450.121H849.655ZM970.197 538.468V539.468H970.875V538.468H970.197ZM910.289 538.468H909.611V539.468H910.289V538.468ZM970.197 450.121H970.875V449.121H970.197V450.121ZM910.289 450.121V449.121H909.611V450.121H910.289ZM1030.84 538.468V539.468H1031.52V538.468H1030.84ZM970.923 538.468H970.244V539.468H970.923V538.468ZM1030.84 450.121H1031.52V449.121H1030.84V450.121ZM970.923 450.121V449.121H970.244V450.121H970.923ZM1030.84 449.057V450.057H1031.52V449.057H1030.84ZM1030.84 360.709H1031.52V359.709H1030.84V360.709ZM970.923 449.057H970.244V450.057H970.923V449.057ZM970.923 360.709V359.709H970.244V360.709H970.923ZM970.197 449.057V450.057H970.875V449.057H970.197ZM970.197 360.709H970.875V359.709H970.197V360.709ZM910.289 449.057H909.611V450.057H910.289V449.057ZM910.289 360.709V359.709H909.611V360.709H910.289ZM909.563 449.057V450.057H910.241V449.057H909.563ZM909.563 360.709H910.241V359.709H909.563V360.709ZM849.655 449.057H848.977V450.057H849.655V449.057ZM849.655 360.709V359.709H848.977V360.709H849.655ZM848.929 449.057V450.057H849.607V449.057H848.929ZM848.929 360.709H849.607V359.709H848.929V360.709ZM789.021 449.057H788.343V450.057H789.021V449.057ZM789.021 360.709V359.709H788.343V360.709H789.021ZM788.295 449.057V450.057H788.973V449.057H788.295ZM788.295 360.709H788.973V359.709H788.295V360.709ZM728.38 449.057H727.702V450.057H728.38V449.057ZM728.38 360.709V359.709H727.702V360.709H728.38ZM788.295 359.645V360.645H788.973V359.645H788.295ZM728.38 359.645H727.702V360.645H728.38V359.645ZM788.295 271.298H788.973V270.298H788.295V271.298ZM728.38 271.298V270.298H727.702V271.298H728.38ZM848.929 359.645V360.645H849.607V359.645H848.929ZM789.021 359.645H788.343V360.645H789.021V359.645ZM848.929 271.298H849.607V270.298H848.929V271.298ZM789.021 271.298V270.298H788.343V271.298H789.021ZM909.563 359.645V360.645H910.241V359.645H909.563ZM849.655 359.645H848.977V360.645H849.655V359.645ZM909.563 271.298H910.241V270.298H909.563V271.298ZM849.655 271.298V270.298H848.977V271.298H849.655ZM970.197 359.645V360.645H970.875V359.645H970.197ZM910.289 359.645H909.611V360.645H910.289V359.645ZM970.197 271.298H970.875V270.298H970.197V271.298ZM910.289 271.298V270.298H909.611V271.298H910.289ZM1030.84 359.645V360.645H1031.52V359.645H1030.84ZM970.923 359.645H970.244V360.645H970.923V359.645ZM1030.84 271.298H1031.52V270.298H1030.84V271.298ZM970.923 271.298V270.298H970.244V271.298H970.923ZM1030.84 270.233V271.233H1031.52V270.233H1030.84ZM1030.84 181.888H1031.52V180.888H1030.84V181.888ZM970.923 270.233H970.244V271.233H970.923V270.233ZM970.923 181.888V180.888H970.244V181.888H970.923ZM970.197 270.233V271.233H970.875V270.233H970.197ZM970.197 181.888H970.875V180.888H970.197V181.888ZM910.289 270.233H909.611V271.233H910.289V270.233ZM910.289 181.888V180.888H909.611V181.888H910.289ZM909.563 270.233V271.233H910.241V270.233H909.563ZM909.563 181.888H910.241V180.888H909.563V181.888ZM849.655 270.233H848.977V271.233H849.655V270.233ZM849.655 181.888V180.888H848.977V181.888H849.655ZM848.929 270.233V271.233H849.607V270.233H848.929ZM848.929 181.888H849.607V180.888H848.929V181.888ZM789.021 270.233H788.343V271.233H789.021V270.233ZM789.021 181.888V180.888H788.343V181.888H789.021ZM788.295 270.233V271.233H788.973V270.233H788.295ZM788.295 181.888H788.973V180.888H788.295V181.888ZM728.38 270.233H727.702V271.233H728.38V270.233ZM728.38 181.888V180.888H727.702V181.888H728.38ZM788.295 180.823V181.823H788.973V180.823H788.295ZM728.38 180.823H727.702V181.823H728.38V180.823ZM788.295 92.4754H788.973V91.4754H788.295V92.4754ZM728.38 92.4754V91.4754H727.702V92.4754H728.38ZM848.929 180.823V181.823H849.607V180.823H848.929ZM789.021 180.823H788.343V181.823H789.021V180.823ZM848.929 92.4754H849.607V91.4754H848.929V92.4754ZM789.021 92.4754V91.4754H788.343V92.4754H789.021ZM909.563 180.823V181.823H910.241V180.823H909.563ZM849.655 180.823H848.977V181.823H849.655V180.823ZM909.563 92.4754H910.241V91.4754H909.563V92.4754ZM849.655 92.4754V91.4754H848.977V92.4754H849.655ZM970.197 180.823V181.823H970.875V180.823H970.197ZM910.289 180.823H909.611V181.823H910.289V180.823ZM970.197 92.4754H970.875V91.4754H970.197V92.4754ZM910.289 92.4754V91.4754H909.611V92.4754H910.289ZM1030.84 180.823V181.823H1031.52V180.823H1030.84ZM970.923 180.823H970.244V181.823H970.923V180.823ZM1030.84 92.4755H1031.52V91.4755H1030.84V92.4755ZM970.923 92.4754V91.4754H970.244V92.4754H970.923ZM728.38 91.411H727.702V92.411H728.38V91.411ZM788.295 91.411V92.411H788.973V91.411H788.295ZM728.38 3.06442V2.06442H727.702V3.06442H728.38ZM788.295 3.06443H788.973V2.06443H788.295V3.06443ZM789.021 91.411H788.343V92.411H789.021V91.411ZM848.929 91.411V92.411H849.607V91.411H848.929ZM789.021 3.06443V2.06443H788.343V3.06443H789.021ZM848.929 3.06444H849.607V2.06444H848.929V3.06444ZM849.655 91.411H848.977V92.411H849.655V91.411ZM909.563 91.411V92.411H910.241V91.411H909.563ZM849.655 3.06444V2.06444H848.977V3.06444H849.655ZM909.563 3.06445H910.241V2.06445H909.563V3.06445ZM910.289 91.411H909.611V92.411H910.289V91.411ZM970.197 91.411V92.411H970.875V91.411H970.197ZM910.289 3.06445V2.06445H909.611V3.06445H910.289ZM970.197 3.06446H970.875V2.06446H970.197V3.06446ZM970.923 91.411H970.244V92.411H970.923V91.411ZM1030.84 91.411V92.411H1031.52V91.411H1030.84ZM970.923 3.06446V2.06446H970.244V3.06446H970.923ZM1030.84 3.06447H1031.52V2.06447H1030.84V3.06447ZM0.000420741 3L60.6351 3.00006V1.00006L0.000421711 1L0.000420741 3ZM0.678733 3.06442L0.678577 2H-0.677734V3.06442H0.678733ZM0.678726 91.411L0.678733 3.06442H-0.677734V91.411H0.678726ZM0.678726 92.4754V91.411H-0.677734V92.4754H0.678726ZM0.678726 180.823V92.4754H-0.677734L-0.677693 180.823H0.678726ZM0.678726 181.888V180.823H-0.677693V181.888H0.678726ZM0.678726 270.233V181.888H-0.677693V270.233H0.678726ZM0.678726 271.298V270.233H-0.677693V271.298H0.678726ZM0.678719 359.645L0.678726 271.298H-0.677693V359.645H0.678719ZM0.678719 360.709V359.645H-0.677693V360.709H0.678719ZM0.678719 449.057V360.709H-0.677693L-0.677734 449.057H0.678719ZM0.678719 450.121V449.057H-0.677734V450.121H0.678719ZM0.678712 538.468L0.678719 450.121H-0.677734V538.468H0.678712ZM-0.592068 538.954L-0.591929 538.955L0.59291 537.981L-0.592068 538.954ZM0.678577 539.532L0.678712 538.468H-0.677734V539.532H0.678577ZM363.809 538.532H0.000421307L0.000421145 540.532H363.809V538.532ZM727.621 538.532H363.809V540.532H727.621V538.532ZM726.942 538.468V539.532H728.299V538.468H726.942ZM727.661 537.468H727.621L727.614 539.468H727.661V537.468ZM728.34 539.532V538.468H726.983V539.532H728.34ZM1091.47 538.532H727.661V540.532H1091.47V538.532ZM1455.28 538.532H1091.47V540.532H1455.28V538.532ZM1454.6 538.468V539.532H1455.96V538.468H1454.6ZM1456 537.468H1455.28V539.468H1456V537.468ZM1455.32 2.00013V538.468H1456.68V2.00013H1455.32ZM1455.28 3.00013H1456V1.00013H1455.28V3.00013ZM1395.37 3.00006L1455.28 3.00013V1.00013L1395.37 1.00006V3.00006ZM1394.64 3.00006H1395.37V1.00006H1394.64V3.00006ZM1334.73 3.00006H1394.64V1.00006H1334.73V3.00006ZM1334.01 3.00006H1334.73V1.00006H1334.01V3.00006ZM1274.1 3.00006H1334.01V1.00006H1274.1V3.00006ZM1273.37 3.00006H1274.1V1.00006H1273.37V3.00006ZM1212.74 3.00013L1273.37 3.00006V1.00006L1212.74 1.00013V3.00013ZM1152.11 3.00013H1212.74V1.00013H1152.11V3.00013ZM1092.19 3.00006L1152.11 3.00013V1.00013L1092.19 1.00006V3.00006ZM1091.47 3.00006H1092.19V1.00006H1091.47V3.00006ZM1030.84 3.00006H1091.47V1.00006H1030.84V3.00006ZM970.197 3.00006H1030.84V1.00006H970.197V3.00006ZM909.563 3.00006H970.197V1.00006H909.563V3.00006ZM848.929 3.00006H909.563V1.00006H848.929V3.00006ZM788.295 3.00006H848.929V1.00006H788.295V3.00006ZM727.661 3.00013L788.295 3.00006V1.00006L727.661 1V3.00013ZM727.621 3.00013H727.661V1L727.621 1.00013V3.00013ZM667.705 3.00006L727.621 3.00013V1.00013L667.705 1.00006V3.00006ZM666.983 3.00006H667.705V1.00006H666.983V3.00006ZM607.07 3.00006H666.983V1.00006H607.07V3.00006ZM606.348 3.00006H607.07V1.00006H606.348V3.00006ZM546.436 3.00006H606.348V1.00006H546.436V3.00006ZM545.714 3.00006H546.436V1.00006H545.714V3.00006ZM485.079 3.00013L545.714 3.00006V1.00006L485.079 1.00013V3.00013ZM424.444 3.00013H485.079V1.00013H424.444V3.00013ZM364.531 3.00006L424.444 3.00013V1.00013L364.531 1.00006V3.00006ZM363.809 3.00006H364.531V1.00006H363.809V3.00006ZM303.175 3.00006H363.809V1.00006H303.175V3.00006ZM242.539 3.00006H303.175V1.00006H242.539V3.00006ZM181.905 3.00006H242.539V1.00006H181.905V3.00006ZM121.27 3.00006H181.905V1.00006H121.27V3.00006ZM60.6351 3.00006H121.27V1.00006H60.6351V3.00006ZM1394.69 450.121V538.468H1396.04V450.121H1394.69ZM1455.28 449.121H1395.37V451.121H1455.28V449.121ZM1455.96 538.468V450.121H1454.6V538.468H1455.96ZM1395.37 539.468H1455.28V537.468H1395.37V539.468ZM1395.32 538.468V450.121H1393.96V538.468H1395.32ZM1394.64 449.121H1334.73V451.121H1394.64V449.121ZM1334.05 450.121V538.468H1335.41V450.121H1334.05ZM1334.73 539.468H1394.64V537.468H1334.73V539.468ZM1334.69 538.468V450.121H1333.33V538.468H1334.69ZM1334.01 449.121H1274.1V451.121H1334.01V449.121ZM1273.42 450.121V538.468H1274.78V450.121H1273.42ZM1274.1 539.468H1334.01V537.468H1274.1V539.468ZM1274.05 538.468V450.121H1272.7V538.468H1274.05ZM1273.37 449.121H1213.46V451.121H1273.37V449.121ZM1212.79 450.121V538.468H1214.14V450.121H1212.79ZM1213.46 539.468H1273.37V537.468H1213.46V539.468ZM1213.42 538.468V450.121H1212.06V538.468H1213.42ZM1212.74 449.121H1152.82V451.121H1212.74V449.121ZM1152.15 450.121V538.468H1153.5V450.121H1152.15ZM1152.82 539.468H1212.74V537.468H1152.82V539.468ZM1152.78 538.468V450.121H1151.43V538.468H1152.78ZM1152.11 449.121H1092.19V451.121H1152.11V449.121ZM1091.51 450.121V538.468H1092.87V450.121H1091.51ZM1092.19 539.468H1152.11V537.468H1092.19V539.468ZM1092.15 538.468V450.121H1090.79V538.468H1092.15ZM1091.47 449.121H1031.56V451.121H1091.47V449.121ZM1030.88 450.121V538.468H1032.23V450.121H1030.88ZM1031.56 539.468H1091.47V537.468H1031.56V539.468ZM667.705 539.468H727.621V537.468H667.705V539.468ZM667.027 450.121V538.468H668.383V450.121H667.027ZM727.621 449.121H667.705V451.121H727.621V449.121ZM728.299 538.468V450.121H726.942V538.468H728.299ZM1092.19 450.057H1152.11V448.057H1092.19V450.057ZM1091.51 360.709V449.057H1092.87V360.709H1091.51ZM1152.11 359.709H1092.19V361.709H1152.11V359.709ZM1152.78 449.057V360.709H1151.43V449.057H1152.78ZM1152.82 450.057H1212.74V448.057H1152.82V450.057ZM1152.15 360.709V449.057H1153.5V360.709H1152.15ZM1212.74 359.709H1152.82V361.709H1212.74V359.709ZM1213.42 449.057V360.709H1212.06V449.057H1213.42ZM1213.46 450.057H1273.37V448.057H1213.46V450.057ZM1212.79 360.709V449.057H1214.14V360.709H1212.79ZM1273.37 359.709H1213.46V361.709H1273.37V359.709ZM1274.05 449.057V360.709H1272.7V449.057H1274.05ZM1274.1 450.057H1334.01V448.057H1274.1V450.057ZM1273.42 360.709V449.057H1274.78V360.709H1273.42ZM1334.01 359.709H1274.1V361.709H1334.01V359.709ZM1334.69 449.057V360.709H1333.33V449.057H1334.69ZM1334.73 450.057H1394.64V448.057H1334.73V450.057ZM1334.05 360.709V449.057H1335.41V360.709H1334.05ZM1394.64 359.709H1334.73V361.709H1394.64V359.709ZM1395.32 449.057V360.709H1393.96V449.057H1395.32ZM1395.37 450.057H1455.28V448.057H1395.37V450.057ZM1394.69 360.709V449.057H1396.04V360.709H1394.69ZM1455.28 359.709H1395.37V361.709H1455.28V359.709ZM1455.96 449.057V360.709H1454.6V449.057H1455.96ZM1091.47 448.057H1031.56V450.057H1091.47V448.057ZM1090.79 360.709V449.057H1092.15V360.709H1090.79ZM1031.56 361.709H1091.47V359.709H1031.56V361.709ZM1032.23 449.057V360.709H1030.88V449.057H1032.23ZM1454.6 271.299V359.645H1455.96V271.299H1454.6ZM1395.37 272.299H1455.28V270.299H1395.37V272.299ZM1396.04 359.645V271.299H1394.69V359.645H1396.04ZM1455.28 358.645H1395.37V360.645H1455.28V358.645ZM1393.96 271.299V359.645H1395.32V271.299H1393.96ZM1334.73 272.299H1394.64V270.299H1334.73V272.299ZM1335.41 359.645V271.299H1334.05V359.645H1335.41ZM1394.64 358.645H1334.73V360.645H1394.64V358.645ZM1333.33 271.299V359.645H1334.69V271.299H1333.33ZM1274.1 272.299H1334.01V270.299H1274.1V272.299ZM1274.78 359.645V271.299H1273.42V359.645H1274.78ZM1334.01 358.645H1274.1V360.645H1334.01V358.645ZM1272.7 271.299V359.645H1274.05V271.299H1272.7ZM1213.46 272.299H1273.37V270.299H1213.46V272.299ZM1214.14 359.645V271.299H1212.79V359.645H1214.14ZM1273.37 358.645H1213.46V360.645H1273.37V358.645ZM1212.06 271.299V359.645H1213.42V271.299H1212.06ZM1152.82 272.299H1212.74V270.299H1152.82V272.299ZM1153.5 359.645V271.299H1152.15V359.645H1153.5ZM1212.74 358.645H1152.82V360.645H1212.74V358.645ZM1151.43 271.299V359.645H1152.78V271.299H1151.43ZM1092.19 272.299H1152.11V270.299H1092.19V272.299ZM1092.87 359.645V271.299H1091.51V359.645H1092.87ZM1152.11 358.645H1092.19V360.645H1152.11V358.645ZM1090.79 271.298V359.645H1092.15V271.298H1090.79ZM1031.56 272.298H1091.47V270.298H1031.56V272.298ZM1032.23 359.645V271.298H1030.88V359.645H1032.23ZM1091.47 358.645H1031.56V360.645H1091.47V358.645ZM1092.19 271.234H1152.11V269.234H1092.19V271.234ZM1091.51 181.888V270.234H1092.87V181.888H1091.51ZM1152.11 180.888H1092.19V182.888H1152.11V180.888ZM1152.78 270.234V181.888H1151.43V270.234H1152.78ZM1152.82 271.234H1212.74V269.234H1152.82V271.234ZM1152.15 181.888V270.234H1153.5V181.888H1152.15ZM1212.74 180.888H1152.82V182.888H1212.74V180.888ZM1213.42 270.234V181.888H1212.06V270.234H1213.42ZM1213.46 271.234H1273.37V269.234H1213.46V271.234ZM1212.79 181.888V270.234H1214.14V181.888H1212.79ZM1273.37 180.888H1213.46V182.888H1273.37V180.888ZM1274.05 270.234V181.888H1272.7V270.234H1274.05ZM1274.1 271.234H1334.01V269.234H1274.1V271.234ZM1273.42 181.888V270.234H1274.78V181.888H1273.42ZM1334.01 180.888H1274.1V182.888H1334.01V180.888ZM1334.69 270.234V181.888H1333.33V270.234H1334.69ZM1334.73 271.234H1394.64V269.234H1334.73V271.234ZM1334.05 181.888V270.234H1335.41V181.888H1334.05ZM1394.64 180.888H1334.73V182.888H1394.64V180.888ZM1395.32 270.234V181.888H1393.96V270.234H1395.32ZM1395.37 271.234H1455.28V269.234H1395.37V271.234ZM1394.69 181.888V270.234H1396.04V181.888H1394.69ZM1455.28 180.888H1395.37V182.888H1455.28V180.888ZM1455.96 270.234V181.888H1454.6V270.234H1455.96ZM1454.6 92.4755V180.823H1455.96V92.4755H1454.6ZM1395.37 93.4755H1455.28V91.4755H1395.37V93.4755ZM1396.04 180.823V92.4755H1394.69V180.823H1396.04ZM1455.28 179.823H1395.37V181.823H1455.28V179.823ZM1393.96 92.4755V180.823H1395.32V92.4755H1393.96ZM1334.73 93.4755H1394.64V91.4755H1334.73V93.4755ZM1335.41 180.823V92.4755H1334.05V180.823H1335.41ZM1394.64 179.823H1334.73V181.823H1394.64V179.823ZM1333.33 92.4755V180.823H1334.69V92.4755H1333.33ZM1274.1 93.4755H1334.01V91.4755H1274.1V93.4755ZM1274.78 180.823V92.4755H1273.42V180.823H1274.78ZM1334.01 179.823H1274.1V181.823H1334.01V179.823ZM1272.7 92.4755V180.823H1274.05V92.4755H1272.7ZM1213.46 93.4755H1273.37V91.4755H1213.46V93.4755ZM1214.14 180.823V92.4755H1212.79V180.823H1214.14ZM1273.37 179.823H1213.46V181.823H1273.37V179.823ZM1212.06 92.4755V180.823H1213.42V92.4755H1212.06ZM1152.82 93.4755H1212.74V91.4755H1152.82V93.4755ZM1153.5 180.823V92.4755H1152.15V180.823H1153.5ZM1212.74 179.823H1152.82V181.823H1212.74V179.823ZM1151.43 92.4755V180.823H1152.78V92.4755H1151.43ZM1092.19 93.4755H1152.11V91.4755H1092.19V93.4755ZM1092.87 180.823V92.4755H1091.51V180.823H1092.87ZM1152.11 179.823H1092.19V181.823H1152.11V179.823ZM1090.79 92.4755V180.823H1092.15V92.4755H1090.79ZM1031.56 93.4755H1091.47V91.4755H1031.56V93.4755ZM1032.23 180.823V92.4755H1030.88V180.823H1032.23ZM1091.47 179.823H1031.56V181.823H1091.47V179.823ZM1031.56 182.888H1091.47V180.888H1031.56V182.888ZM1032.23 270.233V181.888H1030.88V270.233H1032.23ZM1091.47 269.233H1031.56V271.233H1091.47V269.233ZM1090.79 181.888V270.233H1092.15V181.888H1090.79ZM1092.19 92.411H1152.11V90.411H1092.19V92.411ZM1091.51 3.06448V91.411H1092.87V3.06448H1091.51ZM1152.11 2.06449L1092.19 2.06448V4.06448L1152.11 4.06449V2.06449ZM1152.78 91.411V3.06449H1151.43V91.411H1152.78ZM1152.82 92.411L1212.74 92.4111V90.4111L1152.82 90.411V92.411ZM1152.15 3.06449V91.411H1153.5V3.06449H1152.15ZM1212.74 2.0645L1152.82 2.06449V4.06449L1212.74 4.0645V2.0645ZM1213.42 91.4111V3.0645H1212.06V91.4111H1213.42ZM1213.46 92.4111H1273.37V90.4111H1213.46V92.4111ZM1212.79 3.0645V91.4111H1214.14V3.0645H1212.79ZM1273.37 2.06451L1213.46 2.0645V4.0645L1273.37 4.06451V2.06451ZM1274.05 91.4111V3.06451H1272.7V91.4111H1274.05ZM1274.1 92.4111H1334.01V90.4111H1274.1V92.4111ZM1273.42 3.06451V91.4111H1274.78V3.06451H1273.42ZM1334.01 2.06453L1274.1 2.06451V4.06451L1334.01 4.06453V2.06453ZM1334.69 91.4111V3.06453H1333.33V91.4111H1334.69ZM1334.73 92.4111H1394.64V90.4111H1334.73V92.4111ZM1334.05 3.06453V91.4111H1335.41V3.06453H1334.05ZM1394.64 2.06454L1334.73 2.06453V4.06453L1394.64 4.06454V2.06454ZM1395.32 91.4111V3.06454H1393.96V91.4111H1395.32ZM1395.37 92.4111H1455.28V90.4111H1395.37V92.4111ZM1394.69 3.06454V91.4111H1396.04V3.06454H1394.69ZM1455.28 2.06455L1395.37 2.06454V4.06454L1455.28 4.06455V2.06455ZM1455.96 91.4111V3.06454L1454.6 3.06455V91.4111H1455.96ZM1091.47 90.411H1031.56V92.411H1091.47V90.411ZM1090.79 3.06448V91.411H1092.15V3.06448H1090.79ZM1031.56 4.06447L1091.47 4.06448V2.06448L1031.56 2.06447V4.06447ZM1032.23 91.411V3.06447H1030.88V91.411H1032.23ZM666.305 450.121V538.468H667.662V450.121H666.305ZM607.07 451.121H666.983V449.121H607.07V451.121ZM607.749 538.468V450.121H606.392V538.468H607.749ZM666.983 537.468H607.07V539.468H666.983V537.468ZM605.67 450.121V538.468H607.026V450.121H605.67ZM546.436 451.121H606.348V449.121H546.436V451.121ZM547.114 538.468V450.121H545.758V538.468H547.114ZM606.348 537.468H546.436V539.468H606.348V537.468ZM545.035 450.121V538.468H546.392V450.121H545.035ZM485.801 451.121H545.714V449.121H485.801V451.121ZM486.479 538.468V450.121H485.122V538.468H486.479ZM545.714 537.468H485.801V539.468H545.714V537.468ZM484.401 450.121V538.468H485.757V450.121H484.401ZM425.166 451.121H485.079V449.121H425.166V451.121ZM425.844 538.468V450.121H424.488V538.468H425.844ZM485.079 537.468H425.166V539.468H485.079V537.468ZM423.766 450.121V538.468H425.123V450.121H423.766ZM364.531 451.121H424.444V449.121H364.531V451.121ZM365.209 538.468V450.121H363.853V538.468H365.209ZM424.444 537.468H364.531V539.468H424.444V537.468ZM363.131 450.121V538.468H364.487V450.121H363.131ZM303.896 451.121H363.809V449.121H303.896V451.121ZM304.574 538.468V450.121H303.218V538.468H304.574ZM363.809 537.468H303.896V539.468H363.809V537.468ZM364.531 450.057H424.444V448.057H364.531V450.057ZM363.853 360.709V449.057H365.209V360.709H363.853ZM424.444 359.709H364.531V361.709H424.444V359.709ZM425.123 449.057V360.709H423.766V449.057H425.123ZM425.166 450.057H485.079V448.057H425.166V450.057ZM424.488 360.709V449.057H425.844V360.709H424.488ZM485.079 359.709H425.166V361.709H485.079V359.709ZM485.757 449.057V360.709H484.401V449.057H485.757ZM485.801 450.057H545.714V448.057H485.801V450.057ZM485.122 360.709V449.057H486.479V360.709H485.122ZM545.714 359.709H485.801V361.709H545.714V359.709ZM546.392 449.057V360.709H545.035V449.057H546.392ZM546.436 450.057H606.348V448.057H546.436V450.057ZM545.758 360.709V449.057H547.114V360.709H545.758ZM606.348 359.709H546.436V361.709H606.348V359.709ZM607.026 449.057V360.709H605.67V449.057H607.026ZM607.07 450.057H666.983V448.057H607.07V450.057ZM606.392 360.709V449.057H607.749V360.709H606.392ZM666.983 359.709H607.07V361.709H666.983V359.709ZM667.662 449.057V360.709H666.305V449.057H667.662ZM667.705 450.057H727.621V448.057H667.705V450.057ZM667.027 360.709V449.057H668.383V360.709H667.027ZM727.621 359.709H667.705V361.709H727.621V359.709ZM728.299 449.057V360.709H726.942V449.057H728.299ZM363.809 448.057H303.896V450.057H363.809V448.057ZM363.131 360.709V449.057H364.487V360.709H363.131ZM303.896 361.709H363.809V359.709H303.896V361.709ZM304.574 449.057V360.709H303.218V449.057H304.574ZM726.942 271.299V359.645H728.299V271.299H726.942ZM667.705 272.299H727.621V270.299H667.705V272.299ZM668.383 359.645V271.299H667.027V359.645H668.383ZM727.621 358.645H667.705V360.645H727.621V358.645ZM666.305 271.299V359.645H667.662V271.299H666.305ZM607.07 272.299H666.983V270.299H607.07V272.299ZM607.749 359.645V271.299H606.392V359.645H607.749ZM666.983 358.645H607.07V360.645H666.983V358.645ZM605.67 271.299V359.645H607.026V271.299H605.67ZM546.436 272.299H606.348V270.299H546.436V272.299ZM547.114 359.645V271.299H545.758V359.645H547.114ZM606.348 358.645H546.436V360.645H606.348V358.645ZM545.035 271.299V359.645H546.392V271.299H545.035ZM485.801 272.299H545.714V270.299H485.801V272.299ZM486.479 359.645V271.299H485.122V359.645H486.479ZM545.714 358.645H485.801V360.645H545.714V358.645ZM484.401 271.299V359.645H485.757V271.299H484.401ZM425.166 272.299H485.079V270.299H425.166V272.299ZM425.844 359.645V271.299H424.488V359.645H425.844ZM485.079 358.645H425.166V360.645H485.079V358.645ZM423.766 271.299V359.645H425.123V271.299H423.766ZM364.531 272.299H424.444V270.299H364.531V272.299ZM365.209 359.645V271.299H363.853V359.645H365.209ZM424.444 358.645H364.531V360.645H424.444V358.645ZM363.131 271.299V359.645H364.487V271.299H363.131ZM363.137 271.166V271.167L364.481 271.431V271.43L363.137 271.166ZM303.896 272.298H363.809V270.298H303.896V272.298ZM304.574 359.645V271.298H303.218V359.645H304.574ZM363.809 358.645H303.896V360.645H363.809V358.645ZM364.531 271.234H424.444V269.234H364.531V271.234ZM363.853 181.888V270.234H365.209V181.888H363.853ZM424.444 180.888H364.531V182.888H424.444V180.888ZM425.123 270.234V181.888H423.766V270.234H425.123ZM425.166 271.234H485.079V269.234H425.166V271.234ZM424.488 181.888V270.234H425.844V181.888H424.488ZM485.079 180.888H425.166V182.888H485.079V180.888ZM485.757 270.234V181.888H484.401V270.234H485.757ZM485.801 271.234H545.714V269.234H485.801V271.234ZM485.122 181.888V270.234H486.479V181.888H485.122ZM545.714 180.888H485.801V182.888H545.714V180.888ZM546.392 270.234V181.888H545.035V270.234H546.392ZM546.436 271.234H606.348V269.234H546.436V271.234ZM545.758 181.888V270.234H547.114V181.888H545.758ZM606.348 180.888H546.436V182.888H606.348V180.888ZM607.026 270.234V181.888H605.67V270.234H607.026ZM607.07 271.234H666.983V269.234H607.07V271.234ZM606.392 181.888V270.234H607.749V181.888H606.392ZM666.983 180.888H607.07V182.888H666.983V180.888ZM667.662 270.234V181.888H666.305V270.234H667.662ZM667.705 271.234H727.621V269.234H667.705V271.234ZM667.027 181.888V270.234H668.383V181.888H667.027ZM727.621 180.888H667.705V182.888H727.621V180.888ZM728.299 270.234V181.888H726.942V270.234H728.299ZM726.942 92.4755V180.823H728.299V92.4755H726.942ZM667.705 93.4755H727.621V91.4755H667.705V93.4755ZM668.383 180.823V92.4755H667.027V180.823H668.383ZM727.621 179.823H667.705V181.823H727.621V179.823ZM666.305 92.4755V180.823H667.662V92.4755H666.305ZM607.07 93.4755H666.983V91.4755H607.07V93.4755ZM607.749 180.823V92.4755H606.392V180.823H607.749ZM666.983 179.823H607.07V181.823H666.983V179.823ZM605.67 92.4755V180.823H607.026V92.4755H605.67ZM546.436 93.4755H606.348V91.4755H546.436V93.4755ZM547.114 180.823V92.4755H545.758V180.823H547.114ZM606.348 179.823H546.436V181.823H606.348V179.823ZM545.035 92.4755V180.823H546.392V92.4755H545.035ZM485.801 93.4755H545.714V91.4755H485.801V93.4755ZM486.479 180.823V92.4755H485.122V180.823H486.479ZM545.714 179.823H485.801V181.823H545.714V179.823ZM484.401 92.4755V180.823H485.757V92.4755H484.401ZM425.166 93.4755H485.079V91.4755H425.166V93.4755ZM425.844 180.823V92.4755H424.488V180.823H425.844ZM485.079 179.823H425.166V181.823H485.079V179.823ZM423.766 92.4755V180.823H425.123V92.4755H423.766ZM364.531 93.4755H424.444V91.4755H364.531V93.4755ZM365.209 180.823V92.4755H363.853V180.823H365.209ZM424.444 179.823H364.531V181.823H424.444V179.823ZM363.131 92.4755V180.823H364.487V92.4755H363.131ZM303.896 93.4755H363.809V91.4755H303.896V93.4755ZM304.574 180.823V92.4755H303.218V180.823H304.574ZM363.809 179.823H303.896V181.823H363.809V179.823ZM303.896 182.888H363.809V180.888H303.896V182.888ZM304.574 270.233V181.888H303.218V270.233H304.574ZM363.809 269.233H303.896V271.233H363.809V269.233ZM363.131 181.888V270.233H364.487V181.888H363.131ZM364.531 92.411H424.444V90.411H364.531V92.411ZM363.853 3.06448V91.411H365.209V3.06448H363.853ZM424.444 2.06449L364.531 2.06448V4.06448L424.444 4.06449V2.06449ZM425.123 91.411V3.06449H423.766V91.411H425.123ZM425.166 92.411L485.079 92.4111V90.4111L425.166 90.411V92.411ZM424.488 3.06449V91.411H425.844V3.06449H424.488ZM485.079 2.0645L425.166 2.06449V4.06449L485.079 4.0645V2.0645ZM485.757 91.4111V3.0645H484.401V91.4111H485.757ZM485.801 92.4111H545.714V90.4111H485.801V92.4111ZM485.122 3.0645V91.4111H486.479V3.0645H485.122ZM545.714 2.06451L485.801 2.0645V4.0645L545.714 4.06451V2.06451ZM546.392 91.4111V3.06451H545.035V91.4111H546.392ZM546.436 92.4111H606.348V90.4111H546.436V92.4111ZM545.758 3.06451V91.4111H547.114V3.06451H545.758ZM606.348 2.06453L546.436 2.06451V4.06451L606.348 4.06453V2.06453ZM607.026 91.4111V3.06453H605.67V91.4111H607.026ZM607.07 92.4111H666.983V90.4111H607.07V92.4111ZM606.392 3.06453V91.4111H607.749V3.06453H606.392ZM666.983 2.06454L607.07 2.06453V4.06453L666.983 4.06454V2.06454ZM667.662 91.4111V3.06454H666.305V91.4111H667.662ZM667.705 92.4111H727.621V90.4111H667.705V92.4111ZM667.027 3.06454V91.4111H668.383V3.06454H667.027ZM727.621 2.06455L667.705 2.06454V4.06454L727.621 4.06455V2.06455ZM728.299 91.4111V3.06455H726.942V91.4111H728.299ZM363.809 90.411H303.896V92.411H363.809V90.411ZM363.131 3.06448V91.411H364.487V3.06448H363.131ZM303.896 4.06447L363.809 4.06448V2.06448L303.896 2.06447V4.06447ZM304.574 91.411V3.06447H303.218V91.411H304.574ZM302.496 450.121V538.468H303.853V450.121H302.496ZM243.261 451.121H303.175V449.121H243.261V451.121ZM243.939 538.468V450.121H242.583V538.468H243.939ZM303.175 537.468H243.261V539.468H303.175V537.468ZM241.861 450.121V538.468H243.218V450.121H241.861ZM182.626 451.121H242.539V449.121H182.626V451.121ZM183.305 538.468V450.121H181.948V538.468H183.305ZM242.539 537.468H182.626V539.468H242.539V537.468ZM181.227 450.121V538.468H182.583V450.121H181.227ZM121.992 451.121H181.905V449.121H121.992V451.121ZM122.671 538.468V450.121H121.314V538.468H122.671ZM181.905 537.468H121.992V539.468H181.905V537.468ZM120.592 450.121V538.468H121.948V450.121H120.592ZM61.357 451.121H121.27V449.121H61.357V451.121ZM62.0351 538.468V450.121H60.6788V538.468H62.0351ZM121.27 537.468H61.357V539.468H121.27V537.468ZM59.9569 450.121V538.468H61.3132V450.121H59.9569ZM0.722406 451.121H60.6351V449.121H0.722406V451.121ZM1.40055 538.468L1.40056 450.121H0.0442492L0.0442466 538.468H1.40055ZM60.6351 537.468H0.722399L0.722406 539.468H60.6351V537.468ZM0.722406 450.057H60.6351V448.057H0.722406V450.057ZM0.0442519 360.709L0.0442492 449.057H1.40056V360.709H0.0442519ZM60.6351 359.709H0.722406V361.709H60.6351V359.709ZM61.3133 449.057V360.709H59.957V449.057H61.3133ZM61.357 450.057H121.27V448.057H61.357V450.057ZM60.6788 360.709V449.057H62.0351V360.709H60.6788ZM121.27 359.709H61.357V361.709H121.27V359.709ZM121.948 449.057V360.709H120.592V449.057H121.948ZM121.992 450.057H181.905V448.057H121.992V450.057ZM121.314 360.709V449.057H122.671V360.709H121.314ZM181.905 359.709H121.992V361.709H181.905V359.709ZM182.583 449.057V360.709H181.227V449.057H182.583ZM182.626 450.057H242.539V448.057H182.626V450.057ZM181.948 360.709V449.057H183.305V360.709H181.948ZM242.539 359.709H182.626V361.709H242.539V359.709ZM243.218 449.057V360.709H241.861V449.057H243.218ZM243.261 450.057H303.175V448.057H243.261V450.057ZM242.583 360.709V449.057H243.939V360.709H242.583ZM303.175 359.709H243.261V361.709H303.175V359.709ZM303.853 449.057V360.709H302.496V449.057H303.853ZM302.496 271.298V359.645H303.853V271.298H302.496ZM243.261 272.298H303.175V270.298H243.261V272.298ZM243.939 359.645V271.298H242.583V359.645H243.939ZM303.175 358.645H243.261V360.645H303.175V358.645ZM241.861 271.298V359.645H243.218V271.298H241.861ZM182.626 272.298H242.539V270.298H182.626V272.298ZM183.305 359.645V271.298H181.948V359.645H183.305ZM242.539 358.645H182.626V360.645H242.539V358.645ZM181.227 271.298V359.645H182.583V271.298H181.227ZM121.992 272.298H181.905V270.298H121.992V272.298ZM122.671 359.645V271.298H121.314V359.645H122.671ZM181.905 358.645H121.992V360.645H181.905V358.645ZM120.592 271.298V359.645H121.948V271.298H120.592ZM61.357 272.298H121.27V270.298H61.357V272.298ZM62.0351 359.645V271.298H60.6788V359.645H62.0351ZM121.27 358.645H61.357V360.645H121.27V358.645ZM59.957 271.298V359.645H61.3133V271.298H59.957ZM0.722413 272.298H60.6351V270.298H0.722413V272.298ZM1.40056 359.645L1.40057 271.298H0.0442546L0.0442519 359.645H1.40056ZM60.6351 358.645H0.722406V360.645H60.6351V358.645ZM0.722413 271.233H60.6351V269.233H0.722413V271.233ZM0.0442572 181.888L0.0442546 270.233H1.40057V181.888H0.0442572ZM60.6351 180.888H0.722413V182.888H60.6351V180.888ZM61.3133 270.233V181.888H59.957V270.233H61.3133ZM61.357 271.233H121.27V269.233H61.357V271.233ZM60.6788 181.888V270.233H62.0351V181.888H60.6788ZM121.27 180.888H61.357V182.888H121.27V180.888ZM121.948 270.233V181.888H120.592V270.233H121.948ZM121.992 271.233H181.905V269.233H121.992V271.233ZM121.314 181.888V270.233H122.671V181.888H121.314ZM181.905 180.888H121.992V182.888H181.905V180.888ZM182.583 270.233V181.888H181.227V270.233H182.583ZM182.626 271.233H242.539V269.233H182.626V271.233ZM181.948 181.888V270.233H183.305V181.888H181.948ZM242.539 180.888H182.626V182.888H242.539V180.888ZM243.218 270.233V181.888H241.861V270.233H243.218ZM243.261 271.233H303.175V269.233H243.261V271.233ZM242.583 181.888V270.233H243.939V181.888H242.583ZM303.175 180.888H243.261V182.888H303.175V180.888ZM303.853 270.233V181.888H302.496V270.233H303.853ZM302.496 92.4755V180.823H303.853V92.4755H302.496ZM243.261 93.4754L303.175 93.4755V91.4755L243.261 91.4754V93.4754ZM243.939 180.823V92.4754H242.583V180.823H243.939ZM303.175 179.823H243.261V181.823H303.175V179.823ZM241.861 92.4754V180.823H243.218V92.4754H241.861ZM182.626 93.4754H242.539V91.4754H182.626V93.4754ZM183.305 180.823V92.4754H181.948V180.823H183.305ZM242.539 179.823H182.626V181.823H242.539V179.823ZM181.227 92.4754V180.823H182.583V92.4754H181.227ZM121.992 93.4754H181.905V91.4754H121.992V93.4754ZM122.671 180.823V92.4754H121.314V180.823H122.671ZM181.905 179.823H121.992V181.823H181.905V179.823ZM120.592 92.4754V180.823H121.948V92.4754H120.592ZM61.357 93.4754H121.27V91.4754H61.357V93.4754ZM62.0351 180.823V92.4754H60.6788V180.823H62.0351ZM121.27 179.823H61.357V181.823H121.27V179.823ZM59.957 92.4754V180.823H61.3133V92.4754H59.957ZM0.722413 93.4754H60.6351V91.4754H0.722413V93.4754ZM1.40057 180.823V92.4754H0.0442599L0.0442572 180.823H1.40057ZM60.6351 179.823H0.722413V181.823H60.6351V179.823ZM0.722413 92.411H60.6351V90.411H0.722413V92.411ZM0.0442626 3.06442L0.0442599 91.411H1.40057L1.40058 3.06442H0.0442626ZM60.6351 2.06443L0.72242 2.06442V4.06442L60.6351 4.06443V2.06443ZM61.3133 91.411V3.06443H59.957V91.411H61.3133ZM61.357 92.411H121.27V90.411H61.357V92.411ZM60.6788 3.06443V91.411H62.0351V3.06443H60.6788ZM121.27 2.06444L61.357 2.06443V4.06443L121.27 4.06444V2.06444ZM121.948 91.411V3.06444H120.592V91.411H121.948ZM121.992 92.411H181.905V90.411H121.992V92.411ZM121.314 3.06444V91.411H122.671V3.06444H121.314ZM181.905 2.06445L121.992 2.06444V4.06444L181.905 4.06445V2.06445ZM182.583 91.411V3.06445H181.227V91.411H182.583ZM182.626 92.411H242.539V90.411H182.626V92.411ZM181.948 3.06445V91.411H183.305V3.06445H181.948ZM242.539 2.06446L182.626 2.06445V4.06445L242.539 4.06446V2.06446ZM243.218 91.411V3.06446H241.861V91.411H243.218ZM243.261 92.411H303.175V90.411H243.261V92.411ZM242.583 3.06446V91.411H243.939V3.06446H242.583ZM303.175 2.06447L243.261 2.06446V4.06446L303.175 4.06447V2.06447ZM303.853 91.411V3.06447H302.496V91.411H303.853ZM788.295 537.468H728.38V539.468H788.295V537.468ZM787.617 450.121V538.468H788.973V450.121H787.617ZM728.38 451.121H788.295V449.121H728.38V451.121ZM729.058 538.468V450.121H727.702V538.468H729.058ZM848.929 537.468H789.021V539.468H848.929V537.468ZM848.251 450.121V538.468H849.607V450.121H848.251ZM789.021 451.121H848.929V449.121H789.021V451.121ZM789.699 538.468V450.121H788.343V538.468H789.699ZM909.563 537.468H849.655V539.468H909.563V537.468ZM908.885 450.121V538.468H910.241V450.121H908.885ZM849.655 451.121H909.563V449.121H849.655V451.121ZM850.333 538.468V450.121H848.977V538.468H850.333ZM970.197 537.468H910.289V539.468H970.197V537.468ZM969.519 450.121V538.468H970.875V450.121H969.519ZM910.289 451.121H970.197V449.121H910.289V451.121ZM910.967 538.468V450.121H909.611V538.468H910.967ZM1030.84 537.468H970.923V539.468H1030.84V537.468ZM1030.16 450.121V538.468H1031.52V450.121H1030.16ZM970.923 451.121H1030.84V449.121H970.923V451.121ZM971.601 538.468V450.121H970.244V538.468H971.601ZM1031.52 449.057V360.709H1030.16V449.057H1031.52ZM970.923 450.057H1030.84V448.057H970.923V450.057ZM970.244 360.709V449.057H971.601V360.709H970.244ZM1030.84 359.709H970.923V361.709H1030.84V359.709ZM970.875 449.057V360.709H969.519V449.057H970.875ZM910.289 450.057H970.197V448.057H910.289V450.057ZM909.611 360.709V449.057H910.967V360.709H909.611ZM970.197 359.709H910.289V361.709H970.197V359.709ZM910.241 449.057V360.709H908.885V449.057H910.241ZM849.655 450.057H909.563V448.057H849.655V450.057ZM848.977 360.709V449.057H850.333V360.709H848.977ZM909.563 359.709H849.655V361.709H909.563V359.709ZM849.607 449.057V360.709H848.251V449.057H849.607ZM789.021 450.057H848.929V448.057H789.021V450.057ZM788.343 360.709V449.057H789.699V360.709H788.343ZM848.929 359.709H789.021V361.709H848.929V359.709ZM788.973 449.057V360.709H787.617V449.057H788.973ZM728.38 450.057H788.295V448.057H728.38V450.057ZM727.702 360.709V449.057H729.058V360.709H727.702ZM788.295 359.709H728.38V361.709H788.295V359.709ZM788.295 358.645H728.38V360.645H788.295V358.645ZM787.617 271.298V359.645H788.973V271.298H787.617ZM728.38 272.298H788.295V270.298H728.38V272.298ZM729.058 359.645V271.298H727.702V359.645H729.058ZM848.929 358.645H789.021V360.645H848.929V358.645ZM848.251 271.298V359.645H849.607V271.298H848.251ZM789.021 272.298H848.929V270.298H789.021V272.298ZM789.699 359.645V271.298H788.343V359.645H789.699ZM909.563 358.645H849.655V360.645H909.563V358.645ZM908.885 271.298V359.645H910.241V271.298H908.885ZM849.655 272.298H909.563V270.298H849.655V272.298ZM850.333 359.645V271.298H848.977V359.645H850.333ZM970.197 358.645H910.289V360.645H970.197V358.645ZM969.519 271.298V359.645H970.875V271.298H969.519ZM910.289 272.298H970.197V270.298H910.289V272.298ZM910.967 359.645V271.298H909.611V359.645H910.967ZM1030.84 358.645H970.923V360.645H1030.84V358.645ZM1030.16 271.298V359.645H1031.52V271.298H1030.16ZM970.923 272.298H1030.84V270.298H970.923V272.298ZM971.601 359.645V271.298H970.244V359.645H971.601ZM1031.52 270.233V181.888H1030.16V270.233H1031.52ZM970.923 271.233H1030.84V269.233H970.923V271.233ZM970.244 181.888V270.233H971.601V181.888H970.244ZM1030.84 180.888H970.923V182.888H1030.84V180.888ZM970.875 270.233V181.888H969.519V270.233H970.875ZM910.289 271.233H970.197V269.233H910.289V271.233ZM909.611 181.888V270.233H910.967V181.888H909.611ZM970.197 180.888H910.289V182.888H970.197V180.888ZM910.241 270.233V181.888H908.885V270.233H910.241ZM849.655 271.233H909.563V269.233H849.655V271.233ZM848.977 181.888V270.233H850.333V181.888H848.977ZM909.563 180.888H849.655V182.888H909.563V180.888ZM849.607 270.233V181.888H848.251V270.233H849.607ZM789.021 271.233H848.929V269.233H789.021V271.233ZM788.343 181.888V270.233H789.699V181.888H788.343ZM848.929 180.888H789.021V182.888H848.929V180.888ZM788.973 270.233V181.888H787.617V270.233H788.973ZM728.38 271.233H788.295V269.233H728.38V271.233ZM727.702 181.888V270.233H729.058V181.888H727.702ZM788.295 180.888H728.38V182.888H788.295V180.888ZM788.295 179.823H728.38V181.823H788.295V179.823ZM787.617 92.4754V180.823H788.973V92.4754H787.617ZM728.38 93.4754H788.295V91.4754H728.38V93.4754ZM729.058 180.823V92.4754H727.702V180.823H729.058ZM848.929 179.823H789.021V181.823H848.929V179.823ZM848.251 92.4754V180.823H849.607V92.4754H848.251ZM789.021 93.4754H848.929V91.4754H789.021V93.4754ZM789.699 180.823V92.4754H788.343V180.823H789.699ZM909.563 179.823H849.655V181.823H909.563V179.823ZM908.885 92.4754V180.823H910.241V92.4754H908.885ZM849.655 93.4754H909.563V91.4754H849.655V93.4754ZM850.333 180.823V92.4754H848.977V180.823H850.333ZM970.197 179.823H910.289V181.823H970.197V179.823ZM969.519 92.4754V180.823H970.875V92.4754H969.519ZM910.289 93.4754H970.197V91.4754H910.289V93.4754ZM910.967 180.823V92.4754H909.611V180.823H910.967ZM1030.84 179.823H970.923V181.823H1030.84V179.823ZM1030.16 92.4755V180.823H1031.52V92.4755H1030.16ZM970.923 93.4754L1030.84 93.4755V91.4755L970.923 91.4754V93.4754ZM971.601 180.823V92.4754H970.244V180.823H971.601ZM728.38 92.411H788.295V90.411H728.38V92.411ZM727.702 3.06442V91.411H729.058V3.06442H727.702ZM788.295 2.06443L728.38 2.06442V4.06442L788.295 4.06443V2.06443ZM788.973 91.411V3.06443H787.617V91.411H788.973ZM789.021 92.411H848.929V90.411H789.021V92.411ZM788.343 3.06443V91.411H789.699V3.06443H788.343ZM848.929 2.06444L789.021 2.06443V4.06443L848.929 4.06444V2.06444ZM849.607 91.411V3.06444H848.251V91.411H849.607ZM849.655 92.411H909.563V90.411H849.655V92.411ZM848.977 3.06444V91.411H850.333V3.06444H848.977ZM909.563 2.06445L849.655 2.06444V4.06444L909.563 4.06445V2.06445ZM910.241 91.411V3.06445H908.885V91.411H910.241ZM910.289 92.411H970.197V90.411H910.289V92.411ZM909.611 3.06445V91.411H910.967V3.06445H909.611ZM970.197 2.06446L910.289 2.06445V4.06445L970.197 4.06446V2.06446ZM970.875 91.411V3.06446H969.519V91.411H970.875ZM970.923 92.411H1030.84V90.411H970.923V92.411ZM970.244 3.06446V91.411H971.601V3.06446H970.244ZM1030.84 2.06447L970.923 2.06446V4.06446L1030.84 4.06447V2.06447ZM1031.52 91.411V3.06447H1030.16V91.411H1031.52Z" fill="white"/>
</g>
</g>
</g>
</svg>
