<svg width="234" height="196" viewBox="0 0 234 196" fill="none" xmlns="http://www.w3.org/2000/svg">
<path d="M158.958 110.494L122.643 101.203L148.695 74.5521L113.668 84.266L123.069 48.7884L96.8957 75.3041L86.9722 39.521L77.7253 75.2513L51.0875 49.4093L61.0274 85.2513L25.3823 75.9429L51.3442 101.55L15.9846 111.356L52.2373 120.728L26.2473 147.298L61.333 137.568L51.8733 173.062L78.0656 146.689L87.9564 182.354L97.5942 146.896L123.836 172.447L113.934 136.742L150.299 146.443L123.657 120.284L158.958 110.494Z" fill="#60AEFE" stroke="#0D0D0D" stroke-width="1.66006" stroke-linejoin="round"/>
<path d="M217.131 84.5013L180.816 75.2097L206.868 48.5591L171.841 58.273L181.242 22.7954L155.069 49.311L145.145 13.5279L135.898 49.2582L109.26 23.4162L119.2 59.2582L83.5551 49.9499L109.517 75.5569L74.1575 85.363L110.41 94.7349L84.4202 121.305L119.506 111.575L110.046 147.069L136.238 120.696L146.129 156.361L155.767 120.903L182.009 146.453L172.107 110.749L208.472 120.449L181.83 94.2911L217.131 84.5013Z" fill="#99D9B3" stroke="#0D0D0D" stroke-width="1.66006" stroke-linejoin="round"/>
</svg>
