<svg xmlns="http://www.w3.org/2000/svg" width="148" height="31" fill="none" viewBox="0 0 148 31"><path fill="#6E61FF" d="M9.2 9.88H20.08V13.96H9.6C5.92 13.96 4.32 15.88 4.32 20.44C4.32 25 5.92 26.88 9.6 26.88H20.08V31H9.2C3.56 31 0.0400001 27.56 0.0400001 20.44C0.0400001 13.32 3.56 9.88 9.2 9.88ZM34.5825 9.88H39.0225C44.6225 9.88 48.1825 13.32 48.1825 20.44C48.1825 27.56 44.6225 31 39.0225 31H34.5825C28.9425 31 25.4225 27.56 25.4225 20.44C25.4225 13.32 28.9425 9.88 34.5825 9.88ZM38.6225 13.96H34.9825C31.3025 13.96 29.7025 15.88 29.7025 20.44C29.7025 25 31.3025 26.88 34.9825 26.88H38.6225C42.2625 26.88 43.9025 25 43.9025 20.44C43.9025 15.88 42.2625 13.96 38.6225 13.96ZM54.5784 0.719999H58.8184V9.88H66.2584C73.3784 9.88 76.8984 13.32 76.8984 19.12V31H72.6184V19.12C72.6184 15.88 70.6584 13.96 66.2584 13.96H58.8184V31H54.5784V0.719999ZM92.3397 9.88H96.7797C102.38 9.88 105.94 13.32 105.94 20.44C105.94 27.56 102.38 31 96.7797 31H92.3397C86.6997 31 83.1797 27.56 83.1797 20.44C83.1797 13.32 86.6997 9.88 92.3397 9.88ZM96.3797 13.96H92.7397C89.0597 13.96 87.4597 15.88 87.4597 20.44C87.4597 25 89.0597 26.88 92.7397 26.88H96.3797C100.02 26.88 101.66 25 101.66 20.44C101.66 15.88 100.02 13.96 96.3797 13.96ZM118.216 9.88H129.936V13.96H118.256C116.296 13.96 115.496 14.76 115.496 16.36C115.496 17.84 116.136 18.64 118.496 18.64H123.456C129.296 18.64 130.776 21.32 130.776 24.6C130.776 28.36 128.816 31 123.856 31H111.576V26.88H123.856C125.816 26.88 126.616 26.2 126.616 24.56C126.616 22.88 125.736 22.2 123.616 22.2H118.616C112.776 22.2 111.336 19.28 111.336 16.04C111.336 12.24 113.296 9.88 118.216 9.88ZM134.973 9.88H137.853V4.88H142.133V9.88H147.973V13.96H142.133V23.96C142.133 26.32 142.973 27.12 144.973 27.12H147.893V31H144.093C139.733 31 137.853 29.24 137.853 23.72V13.96H134.973V9.88Z"/></svg>