<svg xmlns="http://www.w3.org/2000/svg" width="94" height="76" fill="none" viewBox="0 0 94 76"><g clip-path="url(#clip0_289_1111)"><path fill="#FFA352" stroke="#0D0D0D" stroke-linejoin="round" stroke-width="2" d="M1 57.2839L11.5887 51.0077L1.09255 44.7109H12.9313L6.89285 34.0563L17.4154 40.2983V27.8074L23.4274 38.5579L29.5385 27.7869V40.2983L39.9156 34.0768L33.9962 44.7109H45.9474L35.3851 51.0077L45.8548 57.2839H33.9962L40.0545 67.9385L29.5385 61.7445V74.1943L23.4274 63.5671L17.4154 74.2079V61.7445L6.84662 68.1578L12.9313 57.2839H1Z"/></g><g clip-path="url(#clip1_289_1111)"><path fill="#DAC3FF" stroke="#031926" stroke-width="2" d="M73.0003 57.1554C63.286 58.0979 62.5219 58.8621 61.5794 68.5765C60.6366 58.8621 59.8725 58.0983 50.1582 57.1554C59.8725 56.2129 60.6366 55.4488 61.5791 45.7344C62.5216 55.4488 63.286 56.2129 73.0003 57.1554Z"/></g><g clip-path="url(#clip2_289_1111)"><path fill="#699BF7" stroke="#031926" stroke-width="2" d="M35.4048 16.1437L49.1159 7.3855L57.7571 21.1707L44.046 29.9289L35.4048 16.1437Z"/></g><defs><clipPath id="clip0_289_1111"><rect width="47" height="50" fill="#fff" transform="translate(0 26)"/></clipPath><clipPath id="clip1_289_1111"><rect width="24" height="24" fill="#fff" transform="translate(50 45)"/></clipPath><clipPath id="clip2_289_1111"><rect width="26" height="26" fill="#fff" transform="translate(34 6)"/></clipPath></defs></svg>